<?xml version="1.0" encoding="UTF-8"?>
<svg id="Camada_2" data-name="Camada 2" xmlns="http://www.w3.org/2000/svg" xmlns:xlink="http://www.w3.org/1999/xlink" viewBox="0 0 224.21 157.92">
  <defs>
    <style>
      .cls-1 {
        fill: #2a6883;
      }

      .cls-2 {
        fill: #2a6d86;
      }

      .cls-3 {
        fill: #545118;
      }

      .cls-4 {
        fill: url(#Gradiente_sem_nome);
      }

      .cls-5 {
        fill: url(#Gradiente_sem_nome_2);
      }

      .cls-6 {
        fill: url(#Gradiente_sem_nome_3);
      }

      .cls-7 {
        fill: #1d3251;
      }

      .cls-8 {
        fill: #0a0d17;
      }

      .cls-9 {
        fill: #1e5c76;
      }

      .cls-10 {
        fill: #c1c0c1;
      }

      .cls-11 {
        fill: #8aa0a5;
      }

      .cls-12 {
        fill: #050924;
      }

      .cls-13 {
        fill: #fcfcfc;
      }

      .cls-14 {
        fill: #242b48;
      }

      .cls-15 {
        fill: #d0cdc4;
      }

      .cls-16 {
        fill: #0c153a;
      }

      .cls-17 {
        fill: #fdcc29;
      }
    </style>
    <linearGradient id="Gradiente_sem_nome" data-name="Gradiente sem nome" x1="170.63" y1="50.75" x2="173.48" y2="49.16" gradientTransform="translate(0 158.92) scale(1 -1)" gradientUnits="userSpaceOnUse">
      <stop offset="0" stop-color="#26243e"/>
      <stop offset="1" stop-color="#213250"/>
    </linearGradient>
    <linearGradient id="Gradiente_sem_nome_2" data-name="Gradiente sem nome 2" x1="84.49" y1="55.35" x2="76.14" y2="63.92" gradientTransform="translate(0 158.92) scale(1 -1)" gradientUnits="userSpaceOnUse">
      <stop offset="0" stop-color="#000925"/>
      <stop offset="1" stop-color="#2d314f"/>
    </linearGradient>
    <linearGradient id="Gradiente_sem_nome_3" data-name="Gradiente sem nome 3" x1="217.38" y1="46.29" x2="220.52" y2="34.85" gradientTransform="translate(0 158.92) scale(1 -1)" gradientUnits="userSpaceOnUse">
      <stop offset="0" stop-color="#0b1b42"/>
      <stop offset="1" stop-color="#313652"/>
    </linearGradient>
  </defs>
  <g id="Camada_1-2" data-name="Camada 1">
    <g>
      <path class="cls-1" d="M49.81,58.92c.91-.87,2.38-6.09,3.13-7.62.79-1.62,1.64-3.31,2.51-4.94,8.16-15.12,21.97-26.4,38.42-31.36,15.93-4.67,33.06-2.88,47.68,5,14.28,7.69,26.55,22.04,31.21,37.63-1.46-.01-8.02-.21-9.03.25l-.58.02c-.29,1.88-.24,3.35-.22,5.23l.51.51c.09,3.47-.27,24.19.41,25.66.49.25.52.29,1.06.31,2.71.08,5.43.15,8.15.2.67.49.8.52,1.59.74.09.28.13.19.04.37l.37.15c-.24,1.6-2.39,8.71-2.19,9.58,1.53,1.69,2.1,3.1,2.12,5.44-.12,1.09-.18.67.26,1.7-.29.56-1.58,3.13-1.85,3.49-1.98,1.24-3.4,2.94-3.28,5.32,1.03,1.17,3.54,4.02,4.8,4.84l.98.95c.27.57.27.67.79.98,1.82,1.72,3.12,2.59,5.44,3.61.94.41,2.17.66,2.63,1.6-3.52-.66-4.97-.14-9.51-1.36l-.81-.62-.55-.54c-.72-.5-2.58-2.39-3.3-3.1l-.69-.64c-2.56,2.08-8.08,3-9.39,6.16-.01.01-.02.03-.03.04-.55.02-1.11-.1-1.66-.12-3.38-.17-6.77-.08-10.15-.04.26.29.63.83.97.91,2.46.52,5.39.43,7.89.43-1.77.3-2.79.05-4.43.11-8.67,7.92-24.3,15.19-36.04,15.33l-4.63.23-.9-.02-2.09-.04c-11.84-.37-23.32-4.11-33.11-10.77-12.89-8.79-24.32-24.43-27.25-39.87l-.53-1.12c3.96-.11,7.37.16,11.31.33.38-1.99-3.98-.94-5.93-2.53.2-.68-3.68-28.67-4.12-31.63l.05-.8Z"/>
      <path class="cls-1" d="M96.36,56.88c2.56,1.55,8.57,7.11,11.04,9.29l20.08,17.73c.02-8.55-.54-17.18-.75-25.75,4.66-.47,7.97-.29,12.59-.25,5.83.03,11.67,0,17.5-.05,1.23-.02,5.57-.39,6.31.07-.29,1.88-.24,3.35-.22,5.23l.51.51c.09,3.47-.27,24.19.41,25.66.49.25.52.29,1.06.31,2.71.08,5.43.15,8.15.2.67.49.8.52,1.59.74.09.28.13.19.04.37l.37.15c-.24,1.6-2.39,8.71-2.19,9.58,1.53,1.69,2.1,3.1,2.12,5.44-.12,1.09-.18.67.26,1.7-.29.56-1.58,3.13-1.85,3.49-1.98,1.24-3.4,2.94-3.28,5.32,1.03,1.17,3.54,4.02,4.8,4.84l.98.95c.27.57.27.67.79.98,1.82,1.72,3.12,2.59,5.44,3.61.94.41,2.17.66,2.63,1.6-3.52-.66-4.97-.14-9.51-1.36l-.81-.62-.55-.54c-.72-.5-2.58-2.39-3.3-3.1l-.69-.64c-2.56,2.08-8.08,3-9.39,6.16-.01.01-.02.03-.03.04-.55.02-1.11-.1-1.66-.12-3.38-.17-6.77-.08-10.15-.04l-.73-.16c-1.29-1.21-4.72-9.27-5.54-11.33l-.35-.55c-1.21-.78-6.56-.48-8.27-.51-.32.01-1.02.14-1.37.19-.18.63-.74,1.32-1.1,2.26-1.18,3.1-2.43,6.17-3.47,9.32.63.15,1.08.22,1.13,1.07-6.24-.63-14.48-.5-20.83-.55l-.95-.19-.52-.13c-.33.05-1.3.01-1.69,0,.18-1.6.57-3.62.83-5.25.12-.23.4-.52.58-.73.66-7.53-.54-18.33.23-25.84.01-1,.17-.89-.33-1.52-.97-2.07-1.11-1.97-3.32-2.29-1.64-.06-2.61-.09-4.22-.38l-.18-1.88c-1.19-.06-1.1.13-1.88-.47-.91-1.88-.43-6.15-.5-8.63l-.13.06c-.36.52-.5.76-1.01,1.16-.31-1.79-.53-1.1-1-2.45.79-1.8,1.02-2.57,1.49-4.48-.29-2.21.37-4.35-.41-7.15.53.06.6.02,1.06-.26.08-3.61-.03-7.21.2-10.81Z"/>
      <path class="cls-17" d="M122.19,126.25c3.51-6.38,6.69-15.36,9.98-22.08,1.33-2.7,2.61-6.39,4.34-8.83,1.84,2.45,2.94,5.1,4.24,7.87l5.93,12.71c1.47,3.14,3.11,7.1,5.14,9.81-.42-2.21-.21-7.63-.21-10.19-.04-6.43,0-12.87.13-19.31,7.14-.61,15.8-1.53,20.77,4.58l.35-.14c1.53,1.69,2.1,3.1,2.12,5.44-.12,1.09-.18.67.26,1.7-.29.56-1.58,3.13-1.85,3.49-1.98,1.24-3.4,2.94-3.28,5.32,1.03,1.17,3.54,4.02,4.8,4.84l.98.95c.27.57.27.67.79.98,1.82,1.72,3.12,2.59,5.44,3.61.94.41,2.17.66,2.63,1.6-3.52-.66-4.97-.14-9.51-1.36l-.81-.62-.55-.54c-.72-.5-2.58-2.39-3.3-3.1l-.69-.64c-2.56,2.08-8.08,3-9.39,6.16-.01.01-.02.03-.03.04-.55.02-1.11-.1-1.66-.12-3.38-.17-6.77-.08-10.15-.04l-.73-.16c-1.29-1.21-4.72-9.27-5.54-11.33l-.35-.55c-1.21-.78-6.56-.48-8.27-.51-.32.01-1.02.14-1.37.19-.18.63-.74,1.32-1.1,2.26-1.18,3.1-2.43,6.17-3.47,9.32.63.15,1.08.22,1.13,1.07-6.24-.63-14.48-.5-20.83-.55l-.95-.19-.52-.13c-.33.05-1.3.01-1.69,0,.18-1.6.57-3.62.83-5.25.12-.23.4-.52.58-.73.66-7.53-.54-18.33.23-25.84,1.57.06,7.42-.26,8.23.37-.53.59-1.25.54-2.18.73-1.02.39-.67.17-1.41,1.05-.12,4.04-1.02,25.24,1.08,27.39.14.14.29.25.45.36,3.31.65,6.12.65,9.45.38Z"/>
      <path class="cls-1" d="M159.32,98.72c1.4-.21,4.15.35,5.91.42,1.45.95,3.1,2.97,3.47,4.66.47,2.15.06,4.39-1.15,6.23-2.06,3.14-4.64,3.1-2.74,6.99,1.64,1.5,3.69,3.52,5.04,5.29-2.56,2.08-8.08,3-9.39,6.16-.01.01-.02.03-.03.04-.78-.63-1.26-.16-2.56-1.37l-.23.04-.19-18.01c-.01-3.14-.12-6.85.08-9.91.48-.53.9-.42,1.77-.55Z"/>
      <path class="cls-10" d="M164.82,117.03c1.64,1.5,3.69,3.52,5.04,5.29-2.56,2.08-8.08,3-9.39,6.16-.01.01-.02.03-.03.04-.78-.63-1.26-.16-2.56-1.37-.1-1.74.25-2.03,1.34-3.35,1.87-2.26,3.61-4.62,5.6-6.78Z"/>
      <path class="cls-14" d="M127.79,127.6c-.58-.16-.74-.28-1.26-.59-.9-2.44,7.67-21.04,9.09-25.35l1.25,3.1c-1.2,1.5-2.75,8.32-3.69,9.22-1.01.16-1.4.16-2.14.82l-.09.48c.61.63.48.45,1.41.73-.18.63-.74,1.32-1.1,2.26-1.18,3.1-2.43,6.17-3.47,9.32Z"/>
      <path class="cls-16" d="M157.65,127.19c-1.88-1.26-1.83-5.48-1.69-7.39.19-2.81-.44-21.18.39-22.16l.85-.02c.75.98.79,1.05,2.12,1.1-.87.13-1.29.02-1.77.55-.2,3.06-.09,6.77-.08,9.91l.19,18.01Z"/>
      <path class="cls-2" d="M133.19,113.98c.94-.9,2.49-7.72,3.69-9.22,1.08,2.37,3.46,7.34,4.12,9.62-1.22-.1-7.29-.27-7.81-.4Z"/>
      <path class="cls-4" d="M172.51,100.81l.35-.14c1.53,1.69,2.1,3.1,2.12,5.44-.12,1.09-.18.67.26,1.7-.29.56-1.58,3.13-1.85,3.49-1.98,1.24-3.4,2.94-3.28,5.32l-2.54-2.43c3.53-2.98,6.68-8.73,4.96-13.39Z"/>
      <path class="cls-9" d="M105.76,122.54c.12-.23.4-.52.58-.73,0,1.63-.09,4.49.28,5.97-.33.05-1.3.01-1.69,0,.18-1.6.57-3.62.83-5.25Z"/>
      <path class="cls-12" d="M157.2,97.62c2.41.03,5.99.14,8.03,1.53-1.76-.07-4.51-.64-5.91-.42-1.33-.05-1.37-.13-2.12-1.1Z"/>
      <path class="cls-17" d="M96.36,56.88c2.56,1.55,8.57,7.11,11.04,9.29l20.08,17.73c.02-8.55-.54-17.18-.75-25.75,4.66-.47,7.97-.29,12.59-.25,5.83.03,11.67,0,17.5-.05,1.23-.02,5.57-.39,6.31.07-.29,1.88-.24,3.35-.22,5.23-.79-.49-1.16-1.15-1.69-1.91-3.47-.21-6.88-.05-10.25-.27-.69,1.08,0,24.42-.32,27.93.96.02,2.61-.02,3.29.77l-.22.39-.71.16c-1.94-.29-4.85-.3-6.86-.33-.59,0-.69-.04-1.24-.24-.59-1.22-.28-25.45-.29-28.77-1.3.14-9.78.62-10.43.22-.7-.29-.79-.28-1.52-.1-2.09,2.45.44,27.9-1.21,30.35-.57-.06-1.13-.21-1.45-.76-2.21-1.19-5.45-4.17-7.5-5.78-7.33-5.73-14.74-13.47-21.92-19.03-.39,1.57-.06,3.49-.07,4.96-.01,3.1.96,15.54.21,17.93.87.18,2.94.35,3.43.71.01.51.09.41-.13.8.93.28,1.04.15,1.64.76-.58.86-1.68.99-2.72,1.22-1.64-.06-2.61-.09-4.22-.38l-.18-1.88c-1.19-.06-1.1.13-1.88-.47-.91-1.88-.43-6.15-.5-8.63l-.13.06c-.36.52-.5.76-1.01,1.16-.31-1.79-.53-1.1-1-2.45.79-1.8,1.02-2.57,1.49-4.48-.29-2.21.37-4.35-.41-7.15.53.06.6.02,1.06-.26.08-3.61-.03-7.21.2-10.81Z"/>
      <path class="cls-14" d="M130.01,90.57c1.06-5.2-.84-27.83,1-31.31.61-.39.4-.38.99-.32l.59,1.38c.82.39.87.19,1.95.02l-.34.74c-.7-.29-.79-.28-1.52-.1-2.09,2.45.44,27.9-1.21,30.35-.57-.06-1.13-.21-1.45-.76Z"/>
      <path class="cls-12" d="M149.13,60.56c.69-.03,1.45-.27,1.85.4-.69,1.08,0,24.42-.32,27.93-2.26-1.53-1.41-7.61-1.46-10.25-.13-5.99.24-12.1-.07-18.09Z"/>
      <path class="cls-16" d="M98.93,64.32l1.65,1.46c-.39,1.57-.06,3.49-.07,4.96-.01,3.1.96,15.54.21,17.93-1.69-1.53-1.35-7.09-1.42-9.46-.15-4.96-.28-9.93-.37-14.89Z"/>
      <path class="cls-7" d="M98.54,89.9c1.86.01,3.63.14,5.48.27.93.28,1.04.15,1.64.76-.58.86-1.68.99-2.72,1.22-1.64-.06-2.61-.09-4.22-.38l-.18-1.88Z"/>
      <path class="cls-8" d="M149.13,60.56c.98-1.4,8.61-.49,10.29-.33.77.07,1.31.41,1.81,1-3.47-.21-6.88-.05-10.25-.27-.39-.67-1.16-.43-1.85-.4Z"/>
      <path class="cls-8" d="M134.53,60.35c1.3-.53,8.17-.67,9.65-.21.22.27.37.4.44.74-1.3.14-9.78.62-10.43.22l.34-.74Z"/>
      <path class="cls-7" d="M95.51,75.09c.85,1.17.37,4.18.52,5.77-.36.52-.5.76-1.01,1.16-.31-1.79-.53-1.1-1-2.45.79-1.8,1.02-2.57,1.49-4.48Z"/>
      <path class="cls-3" d="M96.17,67.69c.15,4.07.09,9.01,0,13.11l-.13.06c-.14-1.59.33-4.6-.52-5.77-.29-2.21.37-4.35-.41-7.15.53.06.6.02,1.06-.26Z"/>
      <path class="cls-16" d="M111.22,98.12c.42.33,1.07.86,1.5,1.13l-.15,20.6c0,1.1.3,5.42.18,6.01-.16-.11-.31-.22-.45-.36-2.1-2.14-1.2-23.35-1.08-27.39Z"/>
      <path class="cls-7" d="M164.9,89.62c2.71.08,5.43.15,8.15.2.67.49.8.52,1.59.74.09.28.13.19.04.37-2.17-.16-5.72-.08-7.98-.1-.54-.42-1.22-.84-1.8-1.21Z"/>
      <path class="cls-12" d="M146.15,89.88c2.01.03,4.92.04,6.86.33.61.26,1.35-.06,1.82.75l-.02.07c-.07.03-.4.15-.47.15-2.76-.28-5.9.17-8.19-1.3Z"/>
      <path class="cls-7" d="M111.22,98.12c.74-.88.4-.66,1.41-1.05,1.55.03,2.46-.03,3.9.56l.11.24c-1.25.47-3.46.31-3.93,1.38-.43-.27-1.08-.8-1.5-1.13Z"/>
      <path class="cls-1" d="M72.06,122.29c-.09-.55-.45-1.26-.74-1.74-4.08-6.81-2.84-15.88,3.25-21.15,5.2-4.51,13.76-4.82,20.36-4.29,3.73.29,7.82,1.41,11.66.87-.77,7.51.43,18.31-.23,25.84-.18.21-.47.5-.58.73-1.78-.14-2.52,4.53-4.37,5.56-8.22,4.6-23.86,1.6-29.34-5.82Z"/>
      <path class="cls-17" d="M78.87,131.51c-5.23-1.85-9.07-3.09-12.8-7.42-3.31-3.83-4.94-8.82-4.52-13.86.43-5.24,3.22-9.85,7.2-13.18,8.58-7.2,19.65-6.13,29.98-5.26,1.61.29,2.58.32,4.22.38,2.21.32,2.35.21,3.32,2.29.5.63.34.52.33,1.52-3.84.54-7.93-.58-11.66-.87-6.6-.52-15.16-.22-20.36,4.29-6.09,5.28-7.33,14.35-3.25,21.15.29.49.65,1.19.74,1.74,5.48,7.41,21.12,10.41,29.34,5.82,1.85-1.04,2.58-5.71,4.37-5.56-.26,1.63-.65,3.64-.83,5.25-1.09,5.16-5,4.52-9.31,5.02-7.78-.32-8.25.61-16.76-1.29Z"/>
      <path class="cls-5" d="M72.06,122.29c-5.78-6.03-6.28-17.78-.39-23.45,8.39-8.07,22.53-4.39,32.71-3.36.91.09,1.31-.44,1.87-1.03.5.63.34.52.33,1.52-3.84.54-7.93-.58-11.66-.87-6.6-.52-15.16-.22-20.36,4.29-6.09,5.28-7.33,14.35-3.25,21.15.29.49.65,1.19.74,1.74Z"/>
      <path class="cls-17" d="M64.86,84.12c1.12,1.87,6.6,4.82,8.71,5.48,1.41.44,2.76.72,4.2,1.37l.1.33c-1.66,1.28-10.54-1.91-12.46-2.64-8.33-3.46-12.25-11.81-8.93-20.21,5.65-14.31,33.32-14.75,38.63-.52.77,2.8.11,4.94.41,7.15-.48,1.91-.7,2.69-1.49,4.48-2.52,3.74-5.02,6.49-9.52,7.84-2.36.58-3.93.89-6.34,1.09.81-.43,2.1-.96,2.94-1.28,7.81-3.04,12.02-9.12,9.34-17.52-1.29-4.06-3.59-6.78-7.42-8.78-1.7-.16-3.31-.45-5.09-.53-11.78-.53-19.74,10.37-14.23,21.1.36.71.99,1.85,1.16,2.63Z"/>
      <path class="cls-14" d="M64.86,84.12c-4.34-3.69-5.77-11.86-3.41-16.99,3.77-8.2,13.99-9.62,21.57-6.21-1.7-.16-3.31-.45-5.09-.53-11.78-.53-19.74,10.37-14.23,21.1.36.71.99,1.85,1.16,2.63Z"/>
      <path class="cls-9" d="M114.91,136.64h1.03s.16.43.16.43c-.03.99,0,1.2.2,2.17.36,1.33.76,2.64,1.22,3.94-.25.67-.53,1.25-.51,1.97l-4.63.23-.9-.02-2.09-.04-.2-.68c.25-1.39,1.26-6.39.85-7.34l.31-.66h4.56Z"/>
      <path class="cls-11" d="M114.91,136.64h1.03s.16.43.16.43c-.03.99,0,1.2.2,2.17-.26-.01-.75-.18-1.02-.26.17,1.85.66,3.19.44,4.99l-.29.06c-1.04-1.14-2-5.47-1.32-6.73l.59-.18.2-.48Z"/>
      <path class="cls-9" d="M114.91,136.64h1.03s.16.43.16.43c-.03.99,0,1.2.2,2.17-.26-.01-.75-.18-1.02-.26-.09-.9-.07-1.13-.58-1.86l.2-.48Z"/>
      <path class="cls-11" d="M111.49,145.36c-.35-1.94-.71-5.91.21-7.67l.4-.13c.98,1.03.65,6.41.29,7.82l-.9-.02Z"/>
      <path class="cls-11" d="M94.31,136.25c-.34.03-.6-.16-.92-.33l-.03-.34c.88-.31,32.17.26,35.64.31l.17.41c-.77.03-1.57.01-2.29.26-.96,0-1.81.03-2.77.08-1.69-.06-3.36-.01-5.05.02l-3.11-.03h-1.03s-4.56,0-4.56,0l-7.03-.09c-3.05.12-5.98-.08-9.01-.29Z"/>
      <path class="cls-14" d="M84.5,87.42c4.5-1.35,7-4.1,9.52-7.84.47,1.35.69.66,1,2.45-1.03,2.07-2.37,3.44-4.32,4.67-1.53.96-5.39,2.86-7.13,2.09,0-.67.32-.75.93-1.37Z"/>
      <path class="cls-7" d="M78.87,131.51c8.51,1.9,8.98.98,16.76,1.29.6.13,2.59.48,3,.74-.24.14-1.19,1.12-1.44,1.38-1.8.65-16.96-1.78-18.32-3.41Z"/>
      <path class="cls-9" d="M115.95,136.64l3.11.03,1.39.32v.41c.22.49.47,1.14.79,1.54l-.95.79c.33.94.63,1.57.5,2.57l-.27.09c-.09-.12-.54-.69-.59-.78-.43.54-.54.75-1.23.94l-.35-.2-.22.73-.61.11c-.46-1.3-.86-2.61-1.22-3.94-.2-.97-.23-1.18-.2-2.17l-.16-.43Z"/>
      <path class="cls-11" d="M116.11,137.06c.71.29.85.2,1.14.98.48,1.34.78,2.9,1.12,4.29l-.22.73-.61.11c-.46-1.3-.86-2.61-1.22-3.94-.2-.97-.23-1.18-.2-2.17Z"/>
      <path class="cls-11" d="M119.94,141.59c-.47-.96-1.78-3.2-1.22-4.16.73.46,1.16,1.5,1.58,2.29.33.94.63,1.57.5,2.57l-.27.09c-.09-.12-.54-.69-.59-.78Z"/>
      <path class="cls-14" d="M104.94,127.79c.39,0,1.35.05,1.69,0l.52.13c-.79,2.09-.23,2.05-1.5,4.32-2.09,1.28-4.6,1.58-7.02,1.32-.41-.26-2.4-.62-3-.74,4.32-.5,8.22.14,9.31-5.02Z"/>
      <path class="cls-12" d="M108.1,128.11c6.35.06,14.59-.08,20.83.55.51.35.71.05,1.39.66-.78.42-19.34-.47-21.27-.21-.25.03-.71-.69-.95-1Z"/>
      <path class="cls-9" d="M94.31,136.25c3.04.22,5.96.41,9.01.29l-.23.49c-.31.29-.83.7-.95,1.07-.5.02-.82-.04-1.3-.11-.8.56-2.42,2.12-2.96,2.19l-.37-.36c-.42-.31-.42-.35-.6-.86,1.07-2.15-.9-1.15-2.6-2.71Z"/>
      <path class="cls-11" d="M97.5,139.82c.78-.96,1.62-2.34,2.9-2.36l.43.53c-.8.56-2.42,2.12-2.96,2.19l-.37-.36Z"/>
      <path class="cls-9" d="M124.11,136.65c.96-.05,1.81-.08,2.77-.08.75.02,1.76,0,2.47.16l-.18.61c-1.29.25-.99-.4-1.88.19-.1,1.09,1.61,1.64-.47,2.56l-.28.11c-1.02-.25-1.06-.78-2.2-1.51l-.16-.1-.09.34c-.75-.82-.54-.5-.71-1.76-.41-.02-.71-.01-1.12,0,.25-.22,1.44-.42,1.85-.51Z"/>
      <path class="cls-11" d="M124.18,138.58c-.26-.79-.33-.6-.04-1.19.8.12,1.74,1.41,2.24,2.08.15.2.3.41.44.61l-.28.11c-1.02-.25-1.06-.78-2.2-1.51l-.16-.1Z"/>
      <path class="cls-16" d="M48.49,93.56c3.96-.11,7.37.16,11.31.33.82.63,1.72.62,2.71,1.06-2.42.07-12.2-.65-13.49-.27l-.53-1.12Z"/>
      <path class="cls-11" d="M108.25,136.78c.32.05.82.1,1.11.2l.67.32c.41.95-.6,5.96-.85,7.34-.23-.13-.53-.36-.75-.53-.34-.92,0-2.06.18-3.06l-.29-.06-.03-1.46-.45-.42c.36-.93.35-1.31.41-2.33Z"/>
      <path class="cls-9" d="M108.25,136.78c.32.05.82.1,1.11.2-.19.98-.67,3.16-.75,4.07l-.29-.06-.03-1.46-.45-.42c.36-.93.35-1.31.41-2.33Z"/>
      <path class="cls-7" d="M133.73,115.82c1.71.03,7.06-.27,8.27.51l.35.55c-1.54.14-7.85.52-8.96-.14l-.1-.45.44-.46Z"/>
      <path class="cls-11" d="M107.85,139.1c-.3,1.19-.89,4-1.76,4.79-.66-.9.15-4.15.59-5.2.48-1.15.59-1.29,1.57-1.92-.06,1.01-.04,1.39-.41,2.33Z"/>
      <path class="cls-11" d="M103.09,137.03c.18.36.39.59.29.86-.49,1.33-1.33,2.46-2.36,3.41l-.48.13c-.06-1.07.99-2.46,1.6-3.33.12-.37.64-.78.95-1.07Z"/>
      <path class="cls-11" d="M120.45,137.39c.69.01.93-.11,1.4.44,1.09,1.28,2.21,3.46,2.82,5.01-1.17-1.07-2.9-3.53-3.43-3.91-.33-.4-.58-1.05-.79-1.54Z"/>
      <path class="cls-2" d="M129,135.9c.97-.02,1.11-.17,1.86.23-.54.33-1.03.22-1.69.19l-.17-.41Z"/>
      <path class="cls-13" d="M113.21,23.28c1.03,1.28,3.03,3.79,3.77,5.16,2.08,3.85,4.52,10.62,8.68,12.6,3.19-1.42,4.41-1.85,6.64-4.56,2,3.47,2.78,5.51,3.85,9.31.23.53.43,1.13.82,1.53l.34.63c-.39.8-2.54,3.21-3.33,3.49-.14-1.52.87-1.87-.58-2.55-1.24-.26-2.18-.61-3.44-.52-.62.76.87,1.94.83,4.22-1.61,1.15-3.74-2.47-4.22-3.55-.16-.37-.44-.31-.85-.38-.36-.14-.73-.47-1.04-.71-1.04-1.37-1.51-1.45-3.23-1.75-.24,1.28-.67,4.57-1.59,5.27-.67-.45-.69-1.07-.76-1.86-1.6.37-2.62,1.14-3.67,1.18-.58.02-2.45-1.06-3.26-.81,0,.64,0,.75-.27,1.33h-.43c-.99-1.44.52-2.11-1.92-3.07-1.14-.45-1.29-1.15-1.69-2.19l-.67-.17-1.03.18c-1.76-.46-3.27-2.28-4.61-3.61l-.69-.7c-.8-1.07-1.4-2.19-2.05-3.35-.8-.41-1.59-.92-2.48-.93l-.57.28c-.33,2.21,4.25,7.38,2.97,10.15l-1.28.04c-1.87.68-1.77,1.24-2.26,3.05-1.65.4-1.99.23-3.77.86-.79.25-1.15.36-1.97.48l-.25-.27c-.31-1.22-.39-1.41-1.6-1.71-1.12.17-2.23.98-3.21,1.6,1-1.73,1.43-2.68,2.19-4.54l.13-.22c2.54-5.41,5.6-6.66,8.07-12.96,3.23,2.65,4.51,2.51,8.03,4.01,3.5-5.07,7-9.75,10.41-14.93Z"/>
      <path class="cls-2" d="M117.03,40.9c-1.78-1.3-3.05-9.07-3.45-11.2-.03-.17-.93-.24-1.19-.26-.24-.66-.13-.5.28-1.38.27-.57.55-1.14.84-1.7,4.18,4.88,4.64,10.31,9.42,14.58.42.37,1.74.95,2.27,1.24-.97.85-2.01,1.81-2.99,2.62-.35.29-.85.67-1.14,1l.39.4c-.24,1.28-.67,4.57-1.59,5.27-.67-.45-.69-1.07-.76-1.86l.36-.43c-2.22-.89-1.6-4.02-1.82-6.46l-.21-1.62-.41-.2Z"/>
      <path class="cls-15" d="M121.07,45.8l.39.4c-.24,1.28-.67,4.57-1.59,5.27-.67-.45-.69-1.07-.76-1.86l.36-.43c.43-.32.86-2.24,1.59-3.37Z"/>
      <path class="cls-10" d="M121.07,45.8c.17-1.43.38-3.13,1.32-4.28.69.8-.13,1.69-.17,3.09v.19c-.36.29-.85.67-1.15,1Z"/>
      <path class="cls-11" d="M117.03,40.9c.18-.77.33-1.95.79-2.47.28,1.14,0,3.07-.17,4.29l-.21-1.62-.41-.2Z"/>
      <path class="cls-2" d="M133.89,48.55c-1.49-1.83-4.17-5.97-2.46-8.25,2.36-.24,3.42,4.03,3.96,5.79l.74-.3c.23.53.43,1.13.82,1.53l.34.63c-.39.8-2.54,3.21-3.33,3.49-.14-1.52.87-1.87-.58-2.55l.5-.35Z"/>
      <path class="cls-15" d="M136.14,45.8c.23.53.43,1.13.82,1.53l.34.63c-.39.8-2.54,3.21-3.33,3.49-.14-1.52.87-1.87-.58-2.55l.5-.35.82.45c.9-.05.59.1,1.15-.52.15-1.38.13-.95-.47-2.38l.74-.3Z"/>
      <path class="cls-15" d="M89.21,52.04l.25.27c.81-.13,1.18-.24,1.97-.48,1.31,2.16,3.17.93,5.61,1.3,5.92.27,47.01-.2,48.55.69-3.04.63-9.11.54-12.45.56l-19.56.03c-8.05.03-16.1.02-24.15-.03-4.18-.02-9.83.12-13.86-.39h.48c2.29-.45,9.96-.68,12.47-.57l.72-1.38Z"/>
      <path class="cls-2" d="M89.21,52.04l.25.27c.81-.13,1.18-.24,1.97-.48,1.31,2.16,3.17.93,5.61,1.3-1.43.13-7.29.43-8.55.29l.72-1.38Z"/>
      <path class="cls-13" d="M75.72,33.1c-.28,1.29.12,1.87.69,3.05-.2.81-1.64,2.81-2.24,3.45-2.61,2.77-5.63-.83-7.74-2.4-.33-.24-.27-.66-.24-1,2.1-.42,3.35,3.55,6.53,3.56.69-.22,1.05-.77,1.52-1.34.54-2.72-3.47-3.7-4.54-5.73l.21-.43c1.58,0,3.64,3.51,5.07,4.05.43-1.46-2.4-5.55-1.88-6.61.95-.06,6.5,2.73,7.05,3.59l-.41.16c-1.34-.09-2.09-.51-3.3-1.04-.21.23-.44.55-.71.68Z"/>
      <path class="cls-9" d="M75.72,33.1c-.42-.54-1.4-.63-1.35-1.61.83,0,1.37.47,2.06.93-.21.23-.44.55-.71.68Z"/>
      <path class="cls-13" d="M131.53,17.71c1.53.9,2.26,7.54,3.84,8.79.62.49,4.24-3.72,5.69-3.82.3,1.15-.53,6.46-1.09,7.69l-.32.09c-.51-1.11-.25-2.21-.19-3.53-.19-.12-.65-.35-.88-.46-1.98-.11-3.66,3.85-5.53-1.68-.6-1.78-.99-3.43-1.39-5.28-.56,1.11-2.09,5.08-2.78,5.53l-.47-.21c-.16-.8,2.55-5.95,3.12-7.12Z"/>
      <path class="cls-13" d="M146.84,26.95c-1.05,1.2-3.79,4.91-4.79,5.55-.62-.17-.42-.02-.79-.54.18-.55,3.16-3.84,3.97-5.02.15-1.23-.42-.41-1.45-2.06l-.1-.16.02.06.39-.27c1.5.53,4.69,3.54,6.06,4.76-.68.7-1.35,1.4-2.02,2.11-1.08,1.14-2.02,1.96-1.98,3.59.3.89.49,1.01,1.26,1.59,2.09.33,4.51-3.81,5.93-4.3l.36.31-.06.55c-1.72,1.86-2.72,2.96-4.85,4.33-.89.03-1.06-.24-1.84-.52-4.35-1.59-.47-5.43,1.58-7.76-.47-.75-1.12-1.52-1.68-2.22Z"/>
      <path class="cls-13" d="M153.63,33.11c.76.42.87.62,1.4,1.32.63.51.79.59,1.05,1.38l-.15.51.56.5.36-.05c.65,1.32.07,2.88-1.63,2.86l-.67-.44-.18-.08-1.01-.59-.3-.49c-.79.51-2.86,2.06-3.56,2.04l-.26-.32.1-.67c-.64-.8-.46-.51-.54-1.63,2.13-1.37,3.13-2.48,4.85-4.33Z"/>
      <path class="cls-2" d="M153.63,33.11c.76.42.87.62,1.4,1.32-1.11,1.28-4.21,3.79-5.71,4.65-.64-.8-.46-.51-.54-1.63,2.13-1.37,3.13-2.48,4.85-4.33Z"/>
      <path class="cls-2" d="M153.04,38.03c.91-1.14,1.43-1.51,2.88-1.72l.56.5.36-.05c.65,1.32.07,2.88-1.63,2.86l-.67-.44-.18-.08-1.01-.59-.3-.49Z"/>
      <path class="cls-13" d="M156.48,36.82l.36-.05c.65,1.32.07,2.88-1.63,2.86l-.67-.44c1.2-.76,1.46-1.05,1.94-2.37Z"/>
      <path class="cls-13" d="M85.42,20.66c1.28.52,4.64,5.28,4.63,6.73-1.47-.52-3.08-3.47-3.94-4.86.3,2.56.74,3.2.36,5.92l-.37.2c-.71-.14-2.9-1.82-3.93-2.41l-.4.14c.52,1.02,1.8,3.18,1.83,4.17l-.32.29c-1.02-.45-2.55-5.6-3.85-7.66,1.53.73,5.41,3.6,5.92,3.63.42-.84.12-4.9.07-6.14Z"/>
      <path class="cls-13" d="M153.35,38.52l1.01.59c-.34,1.07-1.5,4.36-1.08,5.06.8,1.32,6.49-.95,7.98-.19-.07.79-4.43,6.02-5.15,6.3l-.36-.22c.12-1.36,2.22-4.01,3.28-5-.33-.78-3.85,1.5-5.63.69-.64-1.89-1.4-2.46-.88-4.51.28-1.1.15-1.65.83-2.71Z"/>
      <path class="cls-13" d="M99.59,21.68c-.6-1.24-1.99-4.32-1.94-5.58.12-.27.15-.46.36-.62l.47.16c.84,2.63,1.56,5.29,2.18,7.97-1.55-.91-5.75-3.52-7.21-3.87l-.16.35c.48,1.1,1.69,3.71,1.46,4.81-.63.21-.36.22-1.03-.08.03-.83-.64-2.69-.91-3.56-.27-1.71-.52-2.55-1.04-4.21,2.2,1.38,5.55,3.53,7.82,4.64Z"/>
      <path class="cls-13" d="M105.97,15.26c.08-.92-.07-.61.51-1.22,1.6-.79,4.45,1.01,4.45,2.93-.44.4-1.06.56-1.64.36l-.39.45-.31.07-.93-.31c-.03,1.23.13,3.55-.08,4.43l-.46.22c-.49-.2-.72-.24-1.04-.64.34-1.76.08-4.48-.13-6.29Z"/>
      <path class="cls-9" d="M107.68,17.54c-.39-.91-.49-1.8-.07-2.69l.55-.17.57.41c.53.88.51,1.19.57,2.24l-.39.45-.31.07-.93-.31Z"/>
      <path class="cls-13" d="M64.57,46.42c1.55.55,2.52.46,4.15.25l-.39,1.47c-1.16,1.32-4.72.28-6.04.62.38,1.35,4.38,3.17,3.57,4.72-.72-.09-2.83-2.71-3.58-3.45-.98-.96-1.92-1.86-2.97-2.77,1.36.02,2.85.12,4.22.19.42-.11.75-.66,1.04-1.03Z"/>
      <path class="cls-9" d="M64.57,46.42c1.55.55,2.52.46,4.15.25l-.39,1.47c-.71-.78-3.64-.64-4.8-.69.42-.11.75-.66,1.04-1.03Z"/>
      <path class="cls-13" d="M64.57,46.42c-1.26-1.28-1.68-1.67-1.67-3.58,0-1.9.58-4.26,2.96-4.09l.41.29c-.65,1.38-3.48.93-2.52,4.79.71,2.85,5.6,1.99,6.46.5-.22-2.05-2.12-2.25-2.33-3.55l.37-.4c.96.21,2.51,1.49,3.33,2.14-.9,1.69-1.4,2.87-2.86,4.14-1.63.21-2.6.3-4.15-.25Z"/>
      <path class="cls-13" d="M116.76,14.28c1.04.64,2.77,7.08,2.96,8.44-1.63-.71-1.62-2.75-2.66-3.68-.59.12-.71.17-1.25.43-.64,1.13-1.13,1.79-2.24,2.47-.04-.32,2.83-6.61,3.2-7.66Z"/>
      <path class="cls-13" d="M102.02,22.94c-.33-1.88-1.17-5.87-.97-7.56.64-.8,2.47-.97,3.32-.4l.08.82-.36.09.62,1.02-.16.36-2.01.31c.43,1.38.14,3.38.93,4.18,1.07.27,1.31-.19,2.25-.22l-.14.5c-.63.6-2.54.73-3.57.91Z"/>
      <path class="cls-9" d="M102.55,17.58c-.21-.77-.34-1.09-.23-1.88.7-.32.81-.09,1.77.2l.62,1.02-.16.36-2.01.31Z"/>
      <path class="cls-13" d="M92.82,25.34c-.3.55-.11.37-.75.65l-.43-.26c-1.01-1.65-2.63-4.98-2.66-6.9l.28-.16c.78.47,1.09,1.32,1.5,2.15l.32-.22.12.18c.33.47.48.76,1.04.93.47-.2.29-.05.57-.43.28.86.94,2.73.91,3.56-.29.13-.74.28-.9.53Z"/>
      <path class="cls-2" d="M90.76,20.8l.32-.22.12.18c.33.47.48.76,1.04.93.47-.2.29-.05.57-.43.28.86.94,2.73.91,3.56-.29.13-.74.28-.9.53-.72-.95-1.79-3.37-2.06-4.53Z"/>
      <path class="cls-13" d="M122.96,14.94l.67.33c.82,2-1.43,5.01-.91,7.23.77.61.96.06,2.41.23l.31.55c-1.68.14-2.82-.1-4.47-.37.7-2.17,1.46-5.68,2-7.96Z"/>
      <path class="cls-15" d="M100.87,41.74l.69.7c-.09,1.98,3.11,7.8,2.03,9.12-1.47-.94-2.97-8.21-2.73-9.82Z"/>
      <path class="cls-13" d="M163.18,48.6l.65.05.12.51c-.96,1.2-4.97,1.98-6.66,3.51-.27-.28-.43-.64-.62-.99l.17-.46c1.85-1.02,4.3-1.83,6.34-2.61Z"/>
      <path class="cls-15" d="M106.17,46.05l1.03-.18c-.3,1.18.82,3.95.44,5.42l-.41.11-.47-.44c-.61-1.5-.59-3.3-.59-4.91Z"/>
      <path class="cls-11" d="M105.49,136.98l.47.34c.28,1.02-1.75,4.26-2.37,5.36-1.2-1.13,1.02-4.73,1.9-5.71Z"/>
      <path class="cls-13" d="M108.91,17.78c.45.18,2.76,2.82,3.48,3.5-1,.63-4.15-1.6-3.78-3.43l.31-.07Z"/>
      <path class="cls-13" d="M136.7,19.88c.88.37.66.13.96.84-.23,1.17-1.4,3.26-1.98,4.47l-.18.17-.23-.32c.12-1.21,1.03-3.88,1.43-5.16Z"/>
      <path class="cls-15" d="M97.46,47.93l1.28-.04.04.18c.36,1.5,1.01,1.8,1.04,3.19l-.24.14c-1.28-1.24-1.53-1.78-2.12-3.47Z"/>
      <path class="cls-15" d="M124.69,47.96c.31.24.68.57,1.04.71-1.05,1.76-1.45,2.39-2.81,3.9.51-1.89.94-2.84,1.77-4.61Z"/>
      <path class="cls-11" d="M143.02,48.58l.08.4c-.52,1.1-1.72,2.16-2.7,2.85-.16-.45-.15-.47-.07-.95.64-.99,1.72-1.63,2.7-2.31Z"/>
      <path class="cls-10" d="M80.57,48.82c1.44.31,2.42,1.36,2.68,2.77-1.07-.27-2.27-1.77-2.68-2.77Z"/>
      <path class="cls-11" d="M136.97,47.33c.47-.62.99-1.5,1.68-1.7.13.99-.69,1.64-1.34,2.33l-.34-.63Z"/>
      <path class="cls-11" d="M86.58,47.39c-.94-.45-1.23.08-1.89-1.37l.32-.26c.8.17,1.17.77,1.7,1.4l-.13.22Z"/>
      <path class="cls-13" d="M37.82,66.99l-.02-.21c-.13-1.56-.75-3.07-1.08-4.58-.71-3.24.32-6.91,2.49-9.39,2.33-2.67,3.82-3.73,5.63-6.9,2.59-4.55,1.1-8.85,3.83-13.05,2.82-4.34,7.23-4.12,11.24-7.74,4.34-3.92,4.49-9.18,9.37-11.85,4.13-2.27,8.42-.81,13.09-3.14,4.78-2.38,6.61-6.99,12.06-7.39,5.06-.37,8.08,1.92,13.52,1.34,5.31-.56,7.24-3.47,12.65-2.84,4.9.57,6.54,3.93,11.2,5.63,5.88,2.14,11.56-1.05,16.55,3.33,3.23,2.84,3.83,5.96,7.71,8.69,4.08,2.87,8.23,2.38,11.62,5.67,3.97,3.86,2.95,8.9,6.26,13.44,3.54,4.85,9.43,5.97,9.88,12.82.25,3.75-.8,6.99.17,10.84,1.18,4.63,4.43,6.62,5.15,11.37.86,5.68-3.02,8.93-3.55,14.05-.66,6.39,2.35,8.38.48,15.03-.81,1.38-1.78,2.6-2.74,3.87-2.16,5.51-1.13,4.33-1.57,9-1.15,2.11-3.58,6.71-5.12,8.4-.52-.31-.52-.41-.79-.98l-.98-.95c-1.26-.82-3.77-3.67-4.8-4.84-.11-2.38,1.31-4.08,3.28-5.32.27-.36,1.56-2.93,1.85-3.49-.43-1.03-.38-.61-.26-1.7-.02-2.34-.59-3.75-2.12-5.44-.2-.87,1.95-7.98,2.19-9.58l-.37-.15c.08-.18.05-.09-.04-.37-.8-.22-.92-.25-1.59-.74-2.72-.05-5.43-.12-8.15-.2-.53-.02-.57-.06-1.06-.31-.68-1.46-.32-22.19-.41-25.66l-.51-.51c-.02-1.88-.07-3.35.22-5.23l.58-.02c1.01-.46,7.57-.26,9.03-.25-4.66-15.59-16.93-29.94-31.21-37.63-14.61-7.88-31.75-9.68-47.68-5-16.45,4.96-30.27,16.24-38.42,31.36-.87,1.62-1.72,3.31-2.51,4.94-.75,1.54-2.22,6.76-3.13,7.62-.26-1.77-.09-3.08-1.91-3.61-.06-.06-1.1-1.73-1.29-1.99-3.76,3.16-3.57,5.51-5.39,7.75-.54,1.48-2.34,4.73-3.4,5.91Z"/>
      <path class="cls-10" d="M46.61,53.32l.12-.12c2.45-2.53,5.37-8.4,5.53-11.83.29-6.16,2.56-6.86,7.9-9.42,6.21-2.99,7.76-8.98,11.58-13.37,1.07-1.23,9.89-1.29,11.87-2.72,4.01-1.77,5.97-3.83,9.27-6.47,3.81-2.46,8.24.83,12.84.72,5.79-.14,8.47-2.19,13.48-3.34,1.3-.3,11.59,6.96,15.3,6.73,2.59-.16,8.06-.4,10.02,1,3.01,3.2,4.43,6.3,8.12,9,3.49,2.56,8.13,3.17,11.25,5.5,1.1.82,2.64,7.72,3.82,9.68,1.61,2.68,3.23,5.15,5.83,7.17,5.82,3.79,4.21,5.64,4.11,11.85-1.68.02-3.23.02-4.9-.05-4.66-15.59-16.93-29.94-31.21-37.63-14.61-7.88-31.75-9.68-47.68-5-16.45,4.96-30.27,16.24-38.42,31.36-.87,1.62-1.72,3.31-2.51,4.94-.75,1.54-2.22,6.76-3.13,7.62-.26-1.77-.09-3.08-1.91-3.61-.06-.06-1.1-1.73-1.29-1.99Z"/>
      <path class="cls-17" d="M178.83,57.53c1.02.27,1.58.4,1.91,1.52.02.93,0,2.19.15,3.08-.34.19-1.01.51-1.29.74l-.13.09-.28.32-.42-.15c.46,2.94,2.31,6.69,4.23,8.95l-.65.78-.42-.5-.47-.02c-.57.55-.68.69-1.12,1.35-.18.96-.15,1.49.21,2.43.95.68.11,1.35,1.05,1.83l.53-.44.49.55c-1.39,2.2-2.35,6.22-2.71,8.8,1.02-.8,1.13-1.8,1.49-3.06,1.54,2.33.26,2.44.42,4.96-.36.2-.79.41-1.11.65-1.22.8-5.98.45-7.68.43-2.72-.05-5.43-.12-8.15-.2-.53-.02-.57-.06-1.06-.31-.68-1.46-.32-22.19-.41-25.66l-.51-.51c-.02-1.88-.07-3.35.22-5.23l.58-.02c1.01-.46,7.57-.26,9.03-.25,1.68.08,3.22.07,4.9.05l1.18-.16Z"/>
      <path class="cls-1" d="M175.83,71.64c1.93.19,2.08,0,3.87-.72.17.08.33.16.46.22.45,1.05.05,1.5.19,2.53-.18.96-.15,1.49.21,2.43.95.68.11,1.35,1.05,1.83l.53-.44.49.55c-1.39,2.2-2.35,6.22-2.71,8.8-1.01,1.18-3.23,1.52-4.69,1.16-2.34.14-3.31.05-5.57-.43.3-3.7-.32-10.34.35-13.76l.02-.1-1.17-.43c0-.65.2-1.02.46-1.62l6.51-.02Z"/>
      <path class="cls-10" d="M178.48,74.98c.45.46.71.73,1.23,1.14l.86-.02c.95.68.11,1.35,1.05,1.83l.53-.44.49.55c-1.39,2.2-2.35,6.22-2.71,8.8-1.01,1.18-3.23,1.52-4.69,1.16,1.35-1.46.35-11.43,1.17-13.02l.79-.16c.37.05.94.15,1.29.17Z"/>
      <path class="cls-17" d="M175.83,71.64c1.93.19,2.08,0,3.87-.72.17.08.33.16.46.22.45,1.05.05,1.5.19,2.53-.18.96-.15,1.49.21,2.43l-.86.02c-.52-.41-.78-.68-1.23-1.14-.76-1.29-1.12-1.31-2.56-1.51-1.46-.15-5.32-.13-7.05-.19,0-.65.2-1.02.46-1.62l6.51-.02Z"/>
      <path class="cls-12" d="M175.92,73.47c1.44.2,1.8.22,2.56,1.51-.35-.02-.92-.12-1.29-.17-1.56-.72-4.55.4-5.99-.81l.07-.24c.99-.34,3.48-.28,4.65-.3Z"/>
      <path class="cls-1" d="M170.27,60.21c2.68.41,5.27.21,7.67.5.58.9.62,1.35.83,2.41.46,2.94,2.31,6.69,4.23,8.95l-.65.78-.42-.5-.47-.02c-.57.55-.68.69-1.12,1.35-.15-1.03.26-1.47-.19-2.53-.13-.06-.28-.14-.46-.22-1.79.71-1.94.9-3.87.72l-6.51.02c1.07-2.42-.46-9.77.95-11.45Z"/>
      <path class="cls-10" d="M173.8,60.82c1.57.04,2.58.02,4.15-.11.58.9.62,1.35.83,2.41.46,2.94,2.31,6.69,4.23,8.95l-.65.78-.42-.5-.47-.02c-.57.55-.68.69-1.12,1.35-.15-1.03.26-1.47-.19-2.53-.13-.06-.28-.14-.46-.22-1.79.71-1.94.9-3.87.72-.42-3.29-1.31-7.57-2.03-10.81Z"/>
      <path class="cls-16" d="M169.66,87.57c-1.95-1.54-1.68-4.83-1.66-7.1.05-6.88,0-13.77.11-20.65,0,0,.32-.36.35-.4l.73-.04c.26.18.92.6,1.07.82-1.41,1.68.12,9.03-.95,11.45-.25.6-.47.97-.46,1.62l1.17.43-.02.1c-.67,3.42-.05,10.06-.35,13.76Z"/>
      <path class="cls-12" d="M169.2,59.39c2.54-.03,7.51-.5,9.38,1.14.6.53.77,1.66.89,2.42l-.28.32-.42-.15c-.22-1.06-.26-1.5-.83-2.41-2.4-.3-4.99-.1-7.67-.5-.15-.22-.82-.64-1.07-.82Z"/>
      <path class="cls-3" d="M163.14,57.91l.58-.02c0,1.79.06,4.05-.29,5.77l-.51-.51c-.02-1.88-.07-3.35.22-5.23Z"/>
      <path class="cls-9" d="M41.22,61.07c-.33-6.18,7.36-9.08,8.9-15.4.67-2.76,1.36-8.83,2.86-10.62,1.94-2.31,7.75-3.85,10.1-6.38,3.85-3.52,4.44-6.59,6.99-9.96,2.49-3.28,9.52-1.65,14.73-4.55,3.12-1.74,7.74-6.41,9.83-6.72,3.37-.49,7.53,1.73,12.35,1.46,5.49-.31,7.63-2.41,11.86-3.05,3.16-.48,8.14,4.95,13.16,6.06,3.84.85,9.94-.15,12.05,1.11,3.15,1.89,4.8,6.42,8.88,9.49,4.39,3.31,8.64,2.96,11.85,5.95,1.8,1.68,2.28,7.81,4.28,10.81,2.55,3.81,4.38,4.93,7.74,7.87,3.95,3.46,1.85,6.55,2.01,10.28v.09s-1.17.16-1.17.16c.1-6.22,1.71-8.07-4.11-11.85-2.61-2.02-4.22-4.49-5.83-7.17-1.18-1.97-2.72-8.86-3.82-9.68-3.12-2.33-7.76-2.94-11.25-5.5-3.68-2.7-5.11-5.8-8.12-9-1.95-1.4-7.43-1.16-10.02-1-3.71.23-14-7.03-15.3-6.73-5.01,1.15-7.69,3.2-13.48,3.34-4.6.11-9.03-3.18-12.84-.72-3.3,2.64-5.26,4.7-9.27,6.47-1.99,1.42-10.8,1.48-11.87,2.72-3.82,4.39-5.37,10.39-11.58,13.37-5.34,2.57-7.61,3.26-7.9,9.42-.16,3.43-3.08,9.3-5.53,11.83l-.12.12c-3.76,3.16-3.57,5.51-5.39,7.75Z"/>
      <path class="cls-10" d="M180.73,89.4c.18.44.6,1.79.76,2l-.41.24c-.1,1.67.91,4.82.99,6.29.2,3.38-4.66,6.97-6.84,9.88-.43-1.03-.38-.61-.26-1.7-.02-2.34-.59-3.75-2.12-5.44-.2-.87,1.95-7.98,2.19-9.58l-.37-.15c.08-.18.05-.09-.04-.37-.8-.22-.92-.25-1.59-.74,1.7.02,6.47.37,7.68-.43Z"/>
      <path class="cls-9" d="M180.73,89.4c.18.44.6,1.79.76,2l-.41.24c-.1,1.67.91,4.82.99,6.29.2,3.38-4.66,6.97-6.84,9.88-.43-1.03-.38-.61-.26-1.7.77-.33,1.35-1.41,1.96-1.92,5.99-4.96,3.65-6.21,2.9-12.77-1.68-.18-3.1-.27-4.79-.33l-.37-.15c.08-.18.05-.09-.04-.37-.8-.22-.92-.25-1.59-.74,1.7.02,6.47.37,7.68-.43Z"/>
      <path class="cls-1" d="M183.35,105.99c-2.16,5.51-1.13,4.33-1.57,9-1.15,2.11-3.58,6.71-5.12,8.4-.52-.31-.52-.41-.79-.98.29-.62.62-2.99.73-3.73.85-5.95,2.24-8.73,6.75-12.68Z"/>
      <path class="cls-9" d="M178.78,63.12l.42.15.28-.32.13-.09.03.21c.85,5.37,5.49,8.1,4.97,12.41-.19,1.6-2.47,5.41-3.19,8.3-.36,1.26-.47,2.26-1.49,3.06.37-2.58,1.33-6.6,2.71-8.8l-.49-.55-.53.44c-.94-.49-.1-1.15-1.05-1.83-.36-.95-.39-1.47-.21-2.43.44-.66.56-.79,1.12-1.35l.47.02.42.5.65-.78c-1.92-2.26-3.77-6.02-4.23-8.95Z"/>
      <path class="cls-16" d="M180.35,73.67c.44-.66.56-.79,1.12-1.35l.47.02.42.5c-.61,1.84-.52,2.78-.21,4.64l-.53.44c-.94-.49-.1-1.15-1.05-1.83-.36-.95-.39-1.47-.21-2.43Z"/>
      <path class="cls-15" d="M183.01,72.07c.95,2.47.63,3.62-.37,5.97l-.49-.55c-.3-1.86-.4-2.81.21-4.64l.65-.78Z"/>
      <path class="cls-9" d="M170.1,116.62c-.11-2.38,1.31-4.08,3.28-5.32-.61,2.27-1.15,4.33-1.64,6.63.53.55,2.92,2.97,3.16,3.53-1.26-.82-3.77-3.67-4.8-4.84Z"/>
      <path class="cls-14" d="M181.84,88.75c1.4-.89,1.06-2.73,2.14-2.92.49,1.16-.08,4.61-1.71,5.29-.26.11-.52.2-.78.29-.16-.22-.58-1.56-.76-2,.32-.24.75-.45,1.11-.65Z"/>
      <path class="cls-12" d="M180.74,59.05c.98.26,1.12.13,1.72.75.14,1.28.4,3.05-.28,4.17-1.09.08-.94-1.01-1.3-1.84-.15-.89-.13-2.15-.15-3.08Z"/>
      <path class="cls-13" d="M43.85,67.29c.59,3.26,2.86,25.05,3.61,25.94.31.12.71.29,1.03.33l.53,1.12c2.93,15.44,14.36,31.08,27.25,39.87,9.79,6.67,21.28,10.4,33.11,10.77l2.09.04.9.02,4.63-.23c11.74-.14,27.37-7.41,36.04-15.33,1.64-.06,2.66.19,4.43-.11-2.5,0-5.43.09-7.89-.43-.35-.07-.71-.61-.97-.91,3.38-.04,6.77-.13,10.15.04.55.03,1.11.14,1.66.12.01-.01.02-.03.03-.04,1.31-3.16,6.83-4.08,9.39-6.16l.69.64c.73.71,2.58,2.6,3.3,3.1l.55.54c-.41.81-2.26,2.98-2.95,3.77-5.55,6.39-12.05,11.89-19.28,16.29-17.66,10.63-38.8,13.9-58.85,9.09-26.6-6.38-47.99-26.11-56.49-52.11-1.05-3.2-1.91-6.38-2.56-9.68-.35-1.77-.57-6.42-1.41-7.63.19-.41.74-.9,1.08-1.24.37-1.49,6.65-12.04,7.93-14.26.54-.49,1.05-1.51,1.43-2.18l.53-1.37Z"/>
      <path class="cls-10" d="M43.85,67.29c.59,3.26,2.86,25.05,3.61,25.94.31.12.71.29,1.03.33l.53,1.12c2.93,15.44,14.36,31.08,27.25,39.87,9.79,6.67,21.28,10.4,33.11,10.77l2.09.04.9.02,4.63-.23c11.74-.14,27.37-7.41,36.04-15.33,1.64-.06,2.66.19,4.43-.11l.3.05c.05.65-1.44,2.6-1.92,3.26-1.23,1.69-2.08,3.87-3.27,5.5-1.59,1.82-5.84,2.12-8.21,2.23-6.36.3-11.47,6.63-15.98,8.73-1.22.57-8.78-1.93-11.62-1.72-5.16.39-7.8,2.21-12.63,3.27-.46.04-1.32-.01-1.71-.26-4.02-2.56-7.42-4.9-12.16-6.08-3.41-.85-7.61.42-10.72-.8-1.3-.51-3.96-4.56-5.09-5.88-1.14-1.31-2.4-2.5-3.78-3.56-6.14-4.7-11.37-1.76-13.07-10-1.16-5.61-5.45-10.92-10.16-14.22-3.6-2.51-1.31-7.98-1.97-11.74.37-4.05-6.13-13.83-5.73-15.47,1.42-5.96,4.09-7.4,3.57-14.36l.53-1.37Z"/>
      <path class="cls-1" d="M33.96,85.1c1.52,4.91,4.19,6.75,5.36,11.59,1.12,4.62-.74,9.02.86,13.17,1.91,4.96,5.9,5.74,9.15,10.04,4.05,5.36,2.08,11.84,8.7,15.16,3.58,1.79,6.78,1.9,10.2,4.68,3.57,2.9,4.28,6.82,8.31,9.09,4.27,2.4,8.1.75,12.65,1.58,7.22,1.31,10.01,8.43,18.42,5.83,3.02-.93,4.65-2.03,7.85-2.53,5.21-.82,8.58,2.2,13.56,1.46,5.53-.82,7.48-5.46,12.51-7.67,4.88-2.14,8.99-.49,13.37-3.46,4.27-2.91,4.22-7.25,7.98-10.84,3.91-3.73,7.29-3.27,10.98-7.14l.55.54c-.41.81-2.26,2.98-2.95,3.77-5.55,6.39-12.05,11.89-19.28,16.29-17.66,10.63-38.8,13.9-58.85,9.09-26.6-6.38-47.99-26.11-56.49-52.11-1.05-3.2-1.91-6.38-2.56-9.68-.35-1.77-.57-6.42-1.41-7.63.19-.41.74-.9,1.08-1.24Z"/>
      <path class="cls-9" d="M41.89,70.84c.54-.49,1.05-1.51,1.43-2.18.52,6.96-2.14,8.4-3.57,14.36-.39,1.64,6.11,11.41,5.73,15.47.66,3.75-1.63,9.22,1.97,11.74,4.71,3.29,9,8.6,10.16,14.22,1.69,8.23,6.93,5.3,13.07,10,1.38,1.05,2.65,2.24,3.78,3.56,1.13,1.32,3.79,5.37,5.09,5.88,3.11,1.22,7.31-.05,10.72.8,4.75,1.18,8.14,3.52,12.16,6.08.39.25,1.25.3,1.71.26,4.84-1.06,7.47-2.89,12.63-3.27,2.83-.21,10.4,2.29,11.62,1.72,4.51-2.1,9.63-8.43,15.98-8.73,2.37-.11,6.62-.41,8.21-2.23,1.19-1.63,2.04-3.81,3.27-5.5.48-.66,1.97-2.6,1.92-3.26l-.3-.05c-2.5,0-5.43.09-7.89-.43-.35-.07-.71-.61-.97-.91,3.38-.04,6.77-.13,10.15.04.55.03,1.11.14,1.66.12.01-.01.02-.03.03-.04,1.31-3.16,6.83-4.08,9.39-6.16l.69.64c-1.74,1.33-9.09,4.22-9.23,5.64.61.32.86.42,1.5.64l-.29.33c-.76.3-1.96.08-2.82,0-3.45,3.94-3.47,4.84-6.01,8.93-2.71,4.37-10.36,2.08-15.82,5.46-3.33,1.63-5.72,5.5-9.28,6.51-2.28.43-5.51-.77-7.76-1.24-6.49-1.36-10.06,1.11-15.81,2.77-3.24.94-9.67-5.46-14.19-6.08-3.64-.5-8.31.09-11.69-1.08-3.15-2.01-4.88-6.6-8.86-9.53-4.1-3.01-7.62-2.9-11.02-5.17-2.67-1.78-2.78-7.92-5.42-12.07-2.84-4.46-7.51-6.54-9.14-9.57-1.43-2.67.35-9.4-1.11-14.27-1.3-4.36-4.63-7.33-4.9-10.68-.31-3.72,3.94-7.71,3.21-12.5l-.03-.21Z"/>
      <path class="cls-17" d="M46.61,53.32c.18.27,1.23,1.93,1.29,1.99,1.82.53,1.65,1.84,1.91,3.61l-.05.8c.44,2.96,4.32,30.95,4.12,31.63,1.96,1.58,6.31.54,5.93,2.53-3.94-.17-7.36-.44-11.31-.33-.32-.04-.72-.21-1.03-.33-.76-.89-3.02-22.68-3.61-25.94l-.53,1.37c-.38.67-.89,1.68-1.43,2.18-1.28,2.22-7.56,12.77-7.93,14.26-.34.34-.9.82-1.08,1.24-.81,1.48-4.09,7.94-5.11,8.44-.77.02-1.45-.6-2.04-1.1-3-2.11-10.25-16.29-12.75-20.21-1.12-1.76-2.5-4.9-4.16-6.35-.49,2.2-.75,5.43-1,7.72-.5,4.44-.94,8.89-1.33,13.34-.04,1.62-.04,2.82-.37,4.41.79,0,1.73-.07,2.42.28l.17.46c-.34.44-.42.53-.85.88-1.1-.47-5.18-.65-6.23-.19-.49-.41-.77-.2-1.5-1.12-.2-.91-.13-2.11,0-3.03,1.4-10.44,3.3-20.79,4.36-31.27.11-1.06.38-4.46,1.39-4.82,1.02.27,1.69.99,2.48,1.69,1.37,1.11,17.72,28.36,18.47,30.38,1.2-.74,5.42-8.63,6.1-10.23,1.28-1.73,3.91-6.62,4.89-8.61,1.06-1.19,2.86-4.43,3.4-5.91,1.82-2.25,1.63-4.59,5.39-7.75Z"/>
      <path class="cls-14" d="M43.81,63.13c.1,1.5.08,2.65.04,4.15l-.53,1.37c-.38.67-.89,1.68-1.43,2.18-1.28,2.22-7.56,12.77-7.93,14.26-.34.34-.9.82-1.08,1.24-.81,1.48-4.09,7.94-5.11,8.44-.77.02-1.45-.6-2.04-1.1,4.76-7.08,8.71-15.1,13.19-22.43,1.68-2.74,3.01-5.44,4.9-8.11Z"/>
      <path class="cls-16" d="M7.13,63.88c.73,1.03,1.51,2,1.68,3.24-.49,2.2-.75,5.43-1,7.72-.5,4.44-.94,8.89-1.33,13.34-.74.79-.76,1.18-1.88.64.38-7.9,1.71-16.99,2.53-24.94Z"/>
      <path class="cls-12" d="M49.75,59.72c.44,2.96,4.32,30.95,4.12,31.63-2.69-2.85-3.12-18.33-4.26-22.51-.25-.93-.64-4.76-.69-5.9.97-1.2.76-1.6.83-3.23Z"/>
      <path class="cls-8" d="M8.36,55.44c1.37,1.11,17.72,28.36,18.47,30.38l-.57-.25c-1.82-2.38-17.74-28.95-17.9-30.14Z"/>
      <path class="cls-8" d="M47.89,55.31c1.82.53,1.65,1.84,1.91,3.61l-.05.8c-.08,1.63.13,2.03-.83,3.23-.38-2.52-.81-5.1-1.03-7.64Z"/>
      <path class="cls-7" d="M4.6,88.82c1.12.54,1.14.15,1.88-.64-.04,1.62-.04,2.82-.37,4.41-1.8-.86-1.71-1.93-1.51-3.76Z"/>
      <path class="cls-1" d="M32.93,75.59c.9-20.79,9.92-40.4,25.12-54.61,32.05-29.5,81.92-27.76,111.44,4.31,18.99,20.63,25.32,48.65,17.82,75.55l-1.22,1.27c1.86-6.64-1.15-8.64-.48-15.03.53-5.12,4.41-8.37,3.55-14.05-.72-4.75-3.97-6.74-5.15-11.37-.98-3.85.08-7.09-.17-10.84-.46-6.84-6.35-7.97-9.88-12.82-3.31-4.54-2.29-9.58-6.26-13.44-3.39-3.29-7.55-2.81-11.62-5.67-3.88-2.73-4.48-5.84-7.71-8.69-4.99-4.39-10.67-1.19-16.55-3.33-4.66-1.7-6.31-5.05-11.2-5.63-5.41-.63-7.34,2.27-12.65,2.84-5.44.58-8.46-1.71-13.52-1.34-5.45.4-7.28,5-12.06,7.39-4.66,2.32-8.96.87-13.09,3.14-4.88,2.68-5.03,7.93-9.37,11.85-4,3.61-8.41,3.4-11.24,7.74-2.73,4.19-1.24,8.5-3.83,13.05-1.81,3.17-3.3,4.23-5.63,6.9-2.17,2.48-3.2,6.15-2.49,9.39.33,1.51.95,3.02,1.08,4.58l.02.21c-.98,1.99-3.6,6.88-4.89,8.61Z"/>
      <path class="cls-17" d="M200.54,96.12c5.69-.81,15.51,1.7,19.29,6.29,2.03,1.99,2.9,3.44,3.9,6.12l-.41.94c-.53.08-.34.12-.81-.07-.3,6.94-2.42,10.97-8.1,15.1-.62.15-1.57.34-2.14.57-1.13.71-4.56,1.74-5.75,1.15.56-.63,2.31-1.13,3.19-1.45,2.59-1.39,5.21-3.26,6.59-5.91,3.45-6.63,1.06-14.95-5.36-18.59-3.86-1.45-6-1.6-10.05-1.29-8.9,1.91-12.37,6.95-12.16,15.86-.59.58-.83.75-1.05,1.55.57,1.3,2.79,6.28,4.42,6.43,2.45,2.68,4.7,3.9,8.1,5.17,1.32.49,2.93.72,3.6,1.96-4.37.03-9.32-2.4-13.3-3.4-5.62-3.64-6.23-5.73-8.71-11.53.44-4.68-.59-3.49,1.57-9,.96-1.27,1.93-2.49,2.74-3.87l1.22-1.27c3.5-2.27,5.27-3.12,9.23-4.38,1.39-.17,2.59-.34,3.99-.34Z"/>
      <path class="cls-14" d="M195.41,98.99c1.62-.71,3.29-.9,5.03-1.15l-.08.7.52.42c-8.9,1.91-12.37,6.95-12.16,15.86-.59.58-.83.75-1.05,1.55-1.79-8.53-.63-13.62,7.73-17.38Z"/>
      <path class="cls-12" d="M200.44,97.83c1.36-.16,2.35-.34,3.71-.13,1.86.32,5.7.82,6.79,2.55-3.86-1.45-6-1.6-10.05-1.29l-.52-.42.08-.7Z"/>
      <path class="cls-8" d="M219.83,102.42c2.03,1.99,2.9,3.44,3.9,6.12l-.41.94c-.53.08-.34.12-.81-.07-.46-2.92-1.27-4.42-2.68-6.98Z"/>
      <path class="cls-6" d="M223.73,108.53c.09.7.09.81.48,1.38v4.4c-1.95,5.1-2.82,9.08-8.58,11.63-.28.12-.55.24-.84.36-.45-.44-.92-.64-1.48-.91l1.1-.9c5.68-4.13,7.8-8.16,8.1-15.1.47.19.28.15.81.07l.41-.94Z"/>
      <path class="cls-8" d="M190.5,126.52c3.98,1,8.94,3.43,13.3,3.4.42.25,3.69,1.41,4.28,1.63-5.95-.78-12.55-1.59-17.59-5.03Z"/>
      <path class="cls-8" d="M175.23,127.23c4.54,1.23,5.99.7,9.51,1.36,1.66.23,3.33.47,4.99.72-.31.06-.61.1-.92.14-4.16.52-10.12.46-13.58-2.23Z"/>
      <path class="cls-8" d="M1.63,94c1.05-.46,5.13-.28,6.23.19,1.02.22,1.71-.19,2.56.41l-.04.3c-1.93.59-7.25.55-8.76-.9Z"/>
      <path class="cls-8" d="M188.73,114.82c.74,3.64,1.16,5,3.37,7.98-1.63-.15-3.85-5.13-4.42-6.43.22-.8.46-.97,1.05-1.55Z"/>
      <path class="cls-14" d="M206.69,128.57c1.32-.87,4.68-2.07,6.62-3.18.56.27,1.03.47,1.48.91-2.07.92-5.85,1.78-8.1,2.27Z"/>
    </g>
  </g>
</svg>