<?xml version="1.0" encoding="UTF-8"?>
<svg id="Camada_2" data-name="Camada 2" xmlns="http://www.w3.org/2000/svg" viewBox="0 0 641.74 159.92">
  <defs>
    <style>
      .cls-1 {
        fill: #2873de;
      }

      .cls-2 {
        fill: #fff;
      }
    </style>
  </defs>
  <g id="Camada_1-2" data-name="Camada 1">
    <path class="cls-1" d="M35.03.31c14.29-.62,32.67-.11,47.18-.11l86.15-.02.05,87.3v24.15c0,5.49.18,13.21-.75,18.47-1.11,6.2-3.87,11.99-7.99,16.76-6.47,7.51-15.67,12.14-25.56,12.87-11.96.44-25.49-.06-37.64.07-32,.33-64.44-.45-96.39.04l-.04-86.16-.02-25.23c0-5.25-.22-12.73.62-17.7,1.11-6.53,3.96-12.64,8.25-17.69C15.85,4.99,24.53,1.08,35.03.31Z"/>
    <path class="cls-2" d="M89.44,15.71c11.44-.7,15.07,2.82,23.83,9.14,1.36.98,7.02,2.22,9.27,3.27,5.66,2.65,9.6,6.95,11.96,12.73,1.06,2.12,1.96,6.25,3.77,7.8,9.57,8.15,11.3,17.75,8.26,29.72,3.43,9.1,3.42,17.86-2.18,26.07-1.24,1.83-3.82,4.12-4.6,5.72-.79,1.81-1.6,4.89-2.17,6.72-3.44,10.95-10.89,13.86-20.56,17.84-1.69.7-5.34,6.2-9.76,8-7.44,3.03-13.24,3.74-20.99,1.21-2.86.94-5.2,1.48-8.11,2.14-7.02.63-12.93-.24-18.43-4.8-1.31-.89-4.85-4.04-6.14-4.38-9.64-2.48-17.44-6.32-21.15-16.22-.35-.92-2.18-5.57-2.9-6.37-3.95-4.41-8.2-8.08-9.54-14.17-1.57-5.84-.37-10.25.11-16.1.05-3.2-1.52-7.04-1.83-10.12-.98-9.73,3.69-15.25,9.11-22.47,1.18-1.57,2.41-8.18,4.32-11.46,2.65-4.49,6.73-7.96,11.59-9.86,4.55-1.82,7.39-2.57,10.58-6.58,4.82-6.08,19.75-9.35,26.49-5.42,3.01-.9,6.01-1.85,9.1-2.42Z"/>
    <path class="cls-1" d="M88.54,21.91c.43.02,1.22.08,1.61.2,18.45,5.69,24.44,31.18,16.38,47.13-1.87,3.7-3.85,6.35-6.36,9.55,7.8-4.42,14.49-8.48,18.34-17.02,4.92-10.9,2.82-19.82-1.03-30.39,1.76,2.3,3.6,4.63,4.91,7.22,7.62,15.12.07,35.55-13.88,44.22-2.77,1.72-5.84,3.01-8.72,4.5,14.75.33,26.32-3.08,33.62-17.13,2.79-5.37,3.34-9.9,4.17-15.78,2.72,14.07-2.19,25.65-14.01,33.95-9.38,6.59-18.87,7.83-30,5.83,5.42,3.22,10.12,6.08,16.46,7.1,14.59,2.33,24.94-4.77,33.25-15.87-6.39,18.52-23.5,25.02-42.22,20.77-5.79-1.31-10.53-5.02-15.32-8.4,5.33,9.43,10.51,16.7,21.47,19.83,9.64,2.75,16.87.68,25.79-2.89-14.12,13.18-34.24,9.36-47.23-3.49-4.2-4.15-6.27-9.16-8.66-14.44,0,9.96.55,18.29,7.31,26.31,6.47,7.69,15.06,10.74,24.75,11.63-17.57,5.99-36.07-11.17-39.05-27.58-.95-5.23-.56-10.2-.23-15.46-4.56,8.03-8.01,14.89-6.88,24.4,1.29,10.86,7.06,17.65,15.36,24.02-1.64.51-7.52-2.99-8.99-4.12-10.66-8.21-14.28-23.57-11.31-36.28,1.56-6.69,4.78-11.32,8.83-16.71-8.61,5.19-15.63,9.59-19.25,19.6-3.65,10.1-1.94,18.63,2.38,28.03-13.2-13.27-9.63-33.75,2.32-46.38,4.68-4.95,9.09-6.78,15.16-9.64-22.34-1.49-35.29,10.49-37.83,32.26-.94-3.81-1.29-7.3-.69-11.19,2.2-14.44,15.69-26.06,29.77-28.35,4.93-.8,9.38-.4,14.23.31-11.33-7.94-24.3-10.23-36.65-3.09-5.62,3.25-8.48,6.7-12.3,11.79,5.02-18.27,25.58-25.13,42.52-20.39,5.84,1.63,9.85,4.71,14.7,8.15-11.35-20.39-25.37-25.67-47.19-16.86,1.61-1.53,3.67-3.12,5.59-4.25,15.3-8.96,36.77-1.46,45.78,13.06,1.73,2.79,2.91,5.93,4.58,8.79.07-10.04-.73-18.28-7.55-26.18-6.95-8.05-14.66-10.07-24.64-11.76,19.15-3.12,32.74,7.67,38.62,25.81,1.93,5.96,1.12,12.03.71,18.18,4.91-9.41,8.68-16.6,6.51-27.64-1.8-9.13-7.5-16.22-15.11-21.32Z"/>
    <path class="cls-2" d="M294.67,28.46l17.44.03c5.38,8.71,10.72,18.6,15.87,27.57,6.2,10.8,12.94,22.13,18.82,33.05,10.81-20.3,23.22-40.36,34.01-60.65,6.17-.05,12.34-.02,18.5.09-.52,33.21.17,67.56.04,100.92l-16.57-.03c-.44-15.86-.05-33.55-.05-49.56-.02-5.42,0-10.84.05-16.26-3.29,6.63-9.4,16.55-13.2,23.17l-22.82,39.75c-2.56-4.97-6.1-10.75-8.92-15.63l-16.41-28.32c-3.23-5.58-7.07-11.91-9.82-17.69-.61,5.29-.31,16.69-.31,22.55l.03,42.01c-5.73-.05-11.53,0-17.26.02l.6-101.02Z"/>
    <path class="cls-1" d="M409.44,28.58c5.69-.09,11.37-.12,17.06-.1,5.12,7.83,10.85,18.57,15.52,26.8,6.22,10.98,13.93,23.42,19.64,34.5,3.09-6.09,7.38-13.42,10.77-19.4l15.64-27.71c1.44-2.57,7.11-11.78,7.7-14.15,6.13-.06,12.27-.04,18.4.06-.37,22,.12,44.14-.05,66.16-.09,11.5-.04,23.12.1,34.62-5.37-.11-11.29.06-16.7.1.38-3.15.18-12.76.18-16.24l-.03-32.64c.03-6.03.04-10.43-.7-16.44-1.61,4.82-8.82,16.81-11.67,21.71-4.48,7.71-8.91,15.45-13.29,23.22-3.46,6.02-7.05,11.99-10.22,18.17-2.46-4.92-6.38-10.94-9.22-15.87l-13.95-24.42c-4.36-7.52-8.28-13.89-12.39-21.68-.61,20.64-.16,43.24-.16,64.03-5.56-.05-11.31.21-16.96.18l.35-100.93Z"/>
    <path class="cls-2" d="M199.4,28.46c28.43-.18,58.01-.33,86.41.06-.12,7.66-.04,15.55-.04,23.23l-68.82-.04-.03,16.81c18.42.27,37.34.05,55.79.06,2.8-.02,5.6.03,8.4.13v21.34s-64.14-.05-64.14-.05v39.5c-5.62-.16-11.82-.04-17.51-.06.21-17.52.09-35.25.09-52.79.08-16.06.03-32.13-.15-48.19Z"/>
    <path class="cls-1" d="M618.57,28.6c5.38-.58,16.86.16,22.98.04-2.61,3.53-5.96,9.04-8.59,12.9-8.3,12.15-16.45,24.39-24.46,36.73,3.49,4.8,7.02,10.5,10.31,15.5l14.55,21.92c2.61,3.97,6.03,8.82,8.34,12.97.12.21-.06.44-.19.72l-1.2.05c-4.45-.01-17.05-.29-20.73.25-7.92-10.93-15.59-22.34-23.43-33.4-3.77,6.05-7.67,12.02-11.68,17.91-3.09,4.53-7.34,10.46-9.84,15.22-7.85-.04-15.74.09-23.58-.05,5.08-6.54,12.25-18.42,17.09-25.7l10.24-15.31c1.94-2.91,4.95-7.2,6.38-10.27-3.16-5.96-32.47-47.63-32.75-49.46,6.23-.42,16.51-.12,23.09-.12,1.43,2.86,6.79,10.54,8.92,13.61,3.91,5.64,8.35,12.93,12.46,18.19,3.26-5.96,9.84-14.08,13.73-19.99,1.59-2.42,6.76-10.06,8.35-11.71Z"/>
    <path class="cls-1" d="M524.28,28.47c5.48.07,11.44-.11,16.84.32-.3,4.38-.1,10.09-.03,14.54l.33,24.16c.15,20.58-.28,41.41.07,61.94-5.75-.05-11.49-.05-17.24.01.16-33.27.36-67.74.03-100.97Z"/>
  </g>
</svg>