<?xml version="1.0" encoding="UTF-8"?>
<svg id="Camada_2" data-name="Camada 2" xmlns="http://www.w3.org/2000/svg" viewBox="0 0 186.03 74.66">
  <defs>
    <style>
      .cls-1 {
        fill: #b4d438;
      }

      .cls-2 {
        fill: #f8f7f7;
      }
    </style>
  </defs>
  <g id="Camada_1-2" data-name="Camada 1">
    <path class="cls-1" d="M36.45.04c10.49.11,20.24,3.57,27.7,11.11,4.46,4.51,7.64,10.12,9.22,16.26,1.83,6.98,1.41,15.93,1.44,23.27v23.98c-3.8-.15-8.52-.02-12.37-.02h-23.86c-10.52-.22-18.2-2.33-26.23-9.68C4.94,58.11.52,48.63.04,38.56-.88,17.65,15.79.94,36.45.04Z"/>
    <path class="cls-2" d="M33.92,8.03c15.98-2.24,30.82,9.64,32.93,25.52.53,4.02.15,7.06-.32,11.03-5.69.22-11.72.14-17.43.14-4.38,0-13.19.78-16.58-1.88-1.47-1.15-2.42-2.85-2.63-4.7-1.2-10.61,14.19-7.91,20.54-8.39-1.65-2.75-4.14-4.9-7.11-6.11-3.63-1.51-8.17-1.52-11.8-.01-3.56,1.51-6.39,4.36-7.87,7.94-1.85,4.58-1.33,8.25.52,12.62,4.86,9.93,15.25,8.14,24.39,8.03,5.01-.06,9.57-.06,14.57.28-4.8,7.39-13.01,13.14-21.86,14.13-8.16.98-16.37-1.38-22.77-6.54-5.89-4.8-9.66-11.72-10.5-19.27-.86-7.74,1.05-15.5,5.96-21.62,4.92-6.21,12.09-10.22,19.96-11.16Z"/>
    <path class="cls-2" d="M185.87,34.27c-1.73-16.33-16.35-28.18-32.68-26.48-16.37,1.7-28.26,16.37-26.53,32.74,1.73,16.37,16.42,28.23,32.78,26.47,16.33-1.75,28.15-16.4,26.43-32.73ZM158.7,51.96c-8.04,1.33-15.63-4.1-16.98-12.13-1.35-8.03,4.07-15.64,12.1-17,8.05-1.37,15.69,4.07,17.04,12.12,1.35,8.06-4.1,15.68-12.16,17.01Z"/>
    <path class="cls-2" d="M92.52,0c.32.03.2,0,.51.2.34,8.67-.09,17.61.07,26.31.09,4.88.04,9.98-.05,14.86,6.44-6.37,13.34-13.65,20.19-19.54,4.08-3.51,11.56.46,11.28,6.05-.29,5.78-8.21,11.54-12.24,15.72,6.74,6.46,13.63,13.59,20.25,20.23,1.04,1.12,2.08,2.24,3.11,3.37l-21.01.02c-3.21-2.66-9.83-9.69-13.05-12.93-3.94,3.69-10.36,12.16-15.91,12.89-3.5.1-7.46-3.06-7.52-6.54-.32-18.61-.73-38.26-.11-56.81,4.72-1.31,9.74-2.71,14.49-3.84Z"/>
  </g>
</svg>