<?xml version="1.0" encoding="UTF-8"?>
<svg id="Camada_2" data-name="Camada 2" xmlns="http://www.w3.org/2000/svg" viewBox="0 0 412.85 428.85">
  <defs>
    <style>
      .cls-1, .cls-2 {
        fill: #fff;
      }

      .cls-1, .cls-3 {
        fill-rule: evenodd;
      }

      .cls-3 {
        fill: #c93;
      }
    </style>
  </defs>
  <g id="Camada_1-2" data-name="Camada 1">
    <g>
      <path class="cls-3" d="M236.82,148.17c8.04,19.87,8.64,28.15,12.26,43.89,2.11,7.78,3.89,15.16,4.88,23.4,2.19,18.13-.44,36.22-10.76,51.69-4.55,6.82-10.4,12.62-16.81,17.66-5.66,4.45-10.88,8.05-21.26,10.56-19.53,4.72-26.6,4.16-42.2-1.2,18.26,14.01,55.93,17.76,82.48-7.58,36.32-34.67,15.47-103.66-8.6-138.42M186.39,69.99c-22.31,30.38-43.53,54.98-62.98,88.31-7.99,13.69-16.69,33.55-20.78,51.37-8.67,37.81-.41,76.06,24.72,105.8,7.32,8.67,22.88,20.34,38.12,26.14,65.98,25.16,135.38-22.81,144.97-90.41C321.3,174.67,226.9,77.21,200.23,0c1.87,82.57,76.16,167.97,79.58,226.36.93,15.95-2.2,30.13-8.1,42.63-17.6,37.35-60.82,59.18-100.9,43.63-66.17-25.67-60.18-101.68-33.93-156.54,7.15-14.95,14.67-27.86,22.84-41.4,7.58-12.56,15.01-21.47,26.66-44.7Z"/>
      <path class="cls-2" d="M100.37,319.84c-2.97,0-5.51,1.09-7.65,3.28-2.13,2.19-3.2,4.84-3.2,7.94,0,2,.49,3.86,1.46,5.59.98,1.73,2.29,3.06,3.95,4,1.65.94,3.47,1.41,5.45,1.41s3.8-.47,5.45-1.41c1.66-.94,2.97-2.27,3.95-4,.97-1.73,1.46-3.6,1.46-5.59,0-3.1-1.07-5.75-3.22-7.94-2.13-2.19-4.68-3.28-7.63-3.28M100.39,316.34c4.28,0,7.83,1.54,10.65,4.63,2.56,2.81,3.84,6.15,3.84,10s-1.35,7.25-4.06,10.14c-2.7,2.89-6.19,4.34-10.43,4.34s-7.76-1.45-10.46-4.34c-2.71-2.89-4.06-6.27-4.06-10.14s1.28-7.16,3.84-9.98c2.81-3.11,6.38-4.66,10.68-4.66ZM76.44,306.67h3.55v10.35h5.65v3.08h-5.65v24.67h-3.55v-24.67h-4.86v-3.08h4.86v-10.35ZM70.92,320.03l-2.3,2.37c-1.91-1.85-3.78-2.77-5.6-2.77-1.16,0-2.15.38-2.98,1.15-.83.76-1.25,1.66-1.25,2.67,0,.9.34,1.76,1.02,2.57.68.84,2.12,1.81,4.3,2.94,2.65,1.37,4.45,2.7,5.41,3.97.93,1.29,1.4,2.74,1.4,4.36,0,2.28-.8,4.21-2.4,5.79-1.6,1.58-3.61,2.37-6.01,2.37-1.6,0-3.13-.35-4.59-1.05-1.45-.7-2.66-1.66-3.62-2.88l2.25-2.55c1.82,2.06,3.76,3.08,5.81,3.08,1.43,0,2.65-.46,3.66-1.38,1-.91,1.51-2,1.51-3.23,0-1.02-.33-1.93-.99-2.73-.67-.78-2.17-1.77-4.51-2.95-2.51-1.29-4.22-2.56-5.11-3.82-.91-1.25-1.36-2.68-1.36-4.3,0-2.1.72-3.84,2.16-5.24,1.45-1.39,3.27-2.08,5.47-2.08,2.56,0,5.14,1.23,7.74,3.69ZM39.67,319.84c-2.97,0-5.52,1.09-7.65,3.28-2.13,2.19-3.2,4.84-3.2,7.94,0,2,.49,3.86,1.46,5.59.98,1.73,2.29,3.06,3.95,4,1.65.94,3.47,1.41,5.45,1.41s3.8-.47,5.45-1.41c1.66-.94,2.97-2.27,3.95-4,.97-1.73,1.45-3.6,1.45-5.59,0-3.1-1.07-5.75-3.21-7.94-2.13-2.19-4.68-3.28-7.63-3.28ZM39.68,316.34c4.28,0,7.83,1.54,10.65,4.63,2.56,2.81,3.84,6.15,3.84,10s-1.35,7.25-4.06,10.14c-2.7,2.89-6.19,4.34-10.43,4.34s-7.76-1.45-10.46-4.34c-2.71-2.89-4.06-6.27-4.06-10.14s1.28-7.16,3.84-9.98c2.81-3.11,6.38-4.66,10.68-4.66ZM3.76,310.9v12.75l6.36.08c2.57,0,4.45-.24,5.65-.71,1.19-.47,2.13-1.22,2.81-2.27.68-1.05,1.02-2.22,1.02-3.51s-.34-2.41-1.02-3.46c-.68-1.05-1.59-1.79-2.7-2.23-1.12-.44-2.94-.66-5.48-.66H3.76ZM0,307.24h7.48c4.29,0,7.19.18,8.69.56,2.14.53,3.89,1.61,5.25,3.26,1.37,1.64,2.05,3.7,2.05,6.19s-.66,4.56-2,6.19c-1.32,1.62-3.15,2.71-5.48,3.28-1.71.41-4.89.61-9.55.61h-2.68v17.46H0v-37.53Z"/>
      <path class="cls-1" d="M209.9,222.51c3.2-7.9,3.44-11.2,4.88-17.46.84-3.1,1.55-6.03,1.94-9.31.87-7.21-.18-14.41-4.28-20.56-1.81-2.71-4.14-5.02-6.69-7.02-2.25-1.77-4.33-3.2-8.46-4.2-7.77-1.88-10.58-1.65-16.79.48,7.26-5.57,22.25-7.06,32.81,3.02,14.45,13.79,6.15,41.23-3.42,55.06M189.84,253.6c-8.88-12.08-17.32-21.87-25.05-35.13-3.18-5.45-6.64-13.35-8.27-20.43-3.45-15.04-.16-30.26,9.83-42.08,2.91-3.45,9.1-8.09,15.16-10.4,26.25-10.01,53.85,9.07,57.67,35.96,4.32,30.45-33.23,69.21-43.84,99.92.75-32.85,30.3-66.82,31.66-90.04.37-6.34-.88-11.98-3.22-16.96-7-14.86-24.19-23.54-40.14-17.36-26.32,10.21-23.94,40.44-13.5,62.27,2.84,5.95,5.83,11.08,9.08,16.47,3.01,5,5.97,8.54,10.61,17.78Z"/>
      <path class="cls-2" d="M335.24,418.32h-49.42c-5.7,0-10.6-2.05-14.7-6.14-4.1-4.1-6.15-8.99-6.15-14.67v-5.83c0-5.75,2.04-10.66,6.11-14.77,4.07-4.09,8.99-6.14,14.75-6.14h49.42v12.59h-49.42c-2.26,0-4.18.81-5.78,2.44-1.6,1.63-2.4,3.57-2.4,5.83v5.83c0,2.25.8,4.18,2.4,5.78,1.6,1.6,3.52,2.4,5.78,2.4h49.42v12.68ZM399.6,400.47h-39.93c-3.13,0-4.7.88-4.7,2.63s1.57,2.54,4.7,2.54h32.32c3.7,0,6.23-1.72,7.61-5.17ZM412.85,397.51c0,5.68-2.04,10.57-6.11,14.67-4.07,4.09-8.99,6.14-14.75,6.14h-32.32c-5.01,0-9.08-1.28-12.21-3.85-3.45-2.69-5.17-6.48-5.17-11.37,0-4.07,1.28-7.52,3.85-10.34,3.13-3.32,7.64-4.98,13.53-4.98h39.56c-1.57-2.94-3.98-4.42-7.24-4.42h-22.27v-12.59h22.27c5.76,0,10.68,2.05,14.75,6.14,4.07,4.1,6.11,9.02,6.11,14.77v5.83ZM258.76,418.32h-12.68v-26.5c0-2.26-.81-4.2-2.44-5.83-1.63-1.63-3.57-2.44-5.82-2.44h-25.65c-2.26,0-4.18.81-5.78,2.44-1.6,1.63-2.4,3.57-2.4,5.83v26.5h-12.68v-26.5c0-5.76,2.04-10.68,6.11-14.75,4.07-4.07,8.99-6.11,14.75-6.11h25.65c5.76,0,10.7,2.04,14.8,6.11,4.1,4.07,6.15,8.99,6.15,14.75v26.5ZM172.04,400.47h-39.93c-3.13,0-4.7.88-4.7,2.63s1.57,2.54,4.7,2.54h32.32c3.7,0,6.23-1.72,7.61-5.17ZM185.28,397.51c0,5.68-2.04,10.57-6.11,14.67-4.07,4.09-8.99,6.14-14.75,6.14h-32.32c-5.01,0-9.08-1.28-12.21-3.85-3.45-2.69-5.17-6.48-5.17-11.37,0-4.07,1.28-7.52,3.85-10.34,3.13-3.32,7.64-4.98,13.53-4.98h39.56c-1.57-2.94-3.98-4.42-7.23-4.42h-22.27v-12.59h22.27c5.76,0,10.68,2.05,14.75,6.14,4.07,4.1,6.11,9.02,6.11,14.77v5.83ZM108.15,418.32h-12.68v-47.35h12.68v47.35ZM108.43,362.7c0,1.13-.66,2.08-1.97,2.87-1.32.78-2.88,1.17-4.7,1.17s-3.37-.39-4.65-1.17c-1.28-.78-1.93-1.74-1.93-2.87s.64-2.1,1.93-2.91c1.28-.81,2.84-1.22,4.65-1.22s3.38.41,4.7,1.22c1.31.81,1.97,1.79,1.97,2.91ZM89.26,418.32h-12.68v-59.95h12.68v59.95ZM57.31,400.47H17.38c-3.13,0-4.7.88-4.7,2.63s1.57,2.54,4.7,2.54h32.32c3.7,0,6.23-1.72,7.61-5.17ZM70.56,397.51c0,5.68-2.04,10.57-6.11,14.67-4.07,4.09-8.99,6.14-14.75,6.14H17.38c-5.01,0-9.08-1.28-12.21-3.85-3.44-2.69-5.17-6.48-5.17-11.37,0-4.07,1.28-7.52,3.85-10.34,3.13-3.32,7.64-4.98,13.53-4.98h39.56c-1.57-2.94-3.98-4.42-7.24-4.42h-22.27v-12.59h22.27c5.76,0,10.68,2.05,14.75,6.14,4.07,4.1,6.11,9.02,6.11,14.77v5.83Z"/>
      <rect class="cls-2" x="295.03" y="420.75" width="20.36" height="8.1"/>
    </g>
  </g>
</svg>