<?xml version="1.0" encoding="UTF-8"?>
<svg id="Camada_2" data-name="Camada 2" xmlns="http://www.w3.org/2000/svg" viewBox="0 0 771.32 215.26">
  <defs>
    <style>
      .cls-1, .cls-2, .cls-3 {
        fill-rule: evenodd;
      }

      .cls-1, .cls-4 {
        fill: #fff;
      }

      .cls-2 {
        fill: #9d1c27;
      }

      .cls-3 {
        fill: #361014;
      }
    </style>
  </defs>
  <g id="Camada_1-2" data-name="Camada 1">
    <path class="cls-4" d="M275.89,79.25h5.23c6.11,0,10.57-1.04,13.38-3.13,2.81-2.08,4.22-5.36,4.22-9.79,0-5.21-1.31-8.92-3.93-11.13-2.64-2.21-7.03-3.3-13.23-3.3h-5.67v27.34ZM249.27,134.07V30.09h29.67c11.59,0,19.68.53,24.24,1.6,4.56,1.07,8.51,2.86,11.83,5.36,3.73,2.84,6.62,6.47,8.63,10.86,2.01,4.41,3.01,9.26,3.01,14.57,0,8.05-1.99,14.59-5.94,19.63-3.97,5.04-9.74,8.39-17.33,10.03l28.36,41.93h-31.99l-23.85-40.72v40.72h-26.61Z"/>
    <path class="cls-4" d="M393.71,112.84c7.85,0,14.35-2.88,19.49-8.65,5.14-5.79,7.71-13.09,7.71-21.89s-2.59-15.97-7.8-21.81c-5.21-5.82-11.68-8.73-19.39-8.73s-14.35,2.91-19.49,8.7c-5.14,5.79-7.71,13.09-7.71,21.84s2.52,16.22,7.59,21.94c5.07,5.74,11.61,8.6,19.61,8.6M449.26,82.3c0,7.49-1.38,14.49-4.12,21.01-2.74,6.54-6.74,12.39-12,17.55-5.31,5.11-11.37,9.04-18.18,11.83-6.81,2.76-13.89,4.14-21.21,4.14s-14.57-1.38-21.35-4.14c-6.79-2.79-12.75-6.71-17.91-11.83-5.36-5.16-9.4-11.03-12.19-17.62-2.76-6.57-4.15-13.55-4.15-20.94s1.38-14.42,4.15-20.99c2.79-6.54,6.83-12.41,12.19-17.57,5.16-5.11,11.13-9.04,17.91-11.83,6.79-2.76,13.91-4.14,21.35-4.14s14.49,1.38,21.33,4.14c6.84,2.79,12.85,6.71,18.06,11.83,5.21,5.11,9.19,10.96,11.97,17.55,2.76,6.57,4.15,13.57,4.15,21.01Z"/>
    <path class="cls-4" d="M542.33,34.16v30.98c-3.88-4.31-7.76-7.47-11.61-9.48-3.85-2.01-8-3.03-12.39-3.03-8.14,0-14.74,2.79-19.78,8.34-5.04,5.55-7.56,12.8-7.56,21.74,0,8.34,2.57,15.25,7.71,20.72,5.14,5.5,11.68,8.24,19.63,8.24,4.39,0,8.53-.99,12.39-3.01,3.85-1.99,7.73-5.16,11.61-9.5v30.98c-4.48,2.18-8.97,3.83-13.4,4.92-4.46,1.09-8.94,1.62-13.5,1.62-5.67,0-10.91-.68-15.71-2.01-4.8-1.36-9.21-3.42-13.23-6.16-7.76-5.21-13.67-11.76-17.74-19.66-4.07-7.93-6.11-16.82-6.11-26.71,0-7.95,1.28-15.17,3.88-21.69,2.57-6.52,6.47-12.41,11.66-17.72,4.92-5.07,10.47-8.85,16.65-11.37,6.18-2.5,13.04-3.76,20.6-3.76,4.56,0,9.04.53,13.5,1.62,4.44,1.09,8.92,2.74,13.4,4.92"/>
    <polygon class="cls-4" points="558.33 134.07 558.33 30.09 586.69 30.09 586.69 70.52 624.5 70.52 624.5 30.09 652.86 30.09 652.86 134.07 624.5 134.07 624.5 91.75 586.69 91.75 586.69 134.07 558.33 134.07"/>
    <path class="cls-4" d="M662.72,134.07l35.9-103.98h35.51l35.92,103.98h-28.19l-5.26-18.62h-40.26l-5.41,18.62h-28.21ZM702.45,95.24h28.19l-10.59-34.32c-.32-1.04-.78-2.71-1.33-5.04-.58-2.33-1.31-5.31-2.21-8.94-.61,2.55-1.21,4.99-1.82,7.32-.58,2.3-1.19,4.53-1.79,6.67l-10.45,34.32Z"/>
    <path class="cls-4" d="M273.73,169.99l-5.82-15.75-5.66,15.75h11.48ZM289.24,186.87h-9.14l-3.62-9.69h-16.81l-3.48,9.69h-8.98l16.27-42.56h8.97l16.79,42.56Z"/>
    <polygon class="cls-4" points="339.25 186.87 339.25 151.5 326.84 151.5 326.84 144.3 360.09 144.3 360.09 151.5 347.74 151.5 347.74 186.87 339.25 186.87"/>
    <path class="cls-4" d="M423.9,169.99l-5.82-15.75-5.66,15.75h11.48ZM439.41,186.87h-9.14l-3.62-9.69h-16.81l-3.48,9.69h-8.98l16.27-42.56h8.97l16.79,42.56Z"/>
    <path class="cls-4" d="M511.15,171.17l8.2,2.56c-1.26,4.69-3.36,8.16-6.28,10.44-2.93,2.27-6.63,3.41-11.13,3.41-5.57,0-10.15-1.93-13.74-5.8-3.58-3.86-5.38-9.15-5.38-15.85,0-7.08,1.8-12.59,5.4-16.52,3.6-3.92,8.34-5.88,14.22-5.88,5.13,0,9.3,1.55,12.5,4.63,1.91,1.82,3.34,4.44,4.29,7.86l-8.37,2.02c-.5-2.2-1.53-3.94-3.1-5.22-1.58-1.28-3.49-1.91-5.74-1.91-3.11,0-5.64,1.13-7.57,3.4-1.94,2.26-2.91,5.93-2.91,11,0,5.37.96,9.2,2.86,11.48,1.91,2.29,4.39,3.43,7.45,3.43,2.25,0,4.2-.72,5.81-2.18,1.62-1.46,2.79-3.74,3.49-6.86"/>
    <path class="cls-4" d="M589.27,169.99l-5.82-15.75-5.66,15.75h11.48ZM604.78,186.87h-9.14l-3.62-9.69h-16.81l-3.48,9.69h-8.98l16.27-42.56h8.97l16.79,42.56Z"/>
    <path class="cls-4" d="M658.2,151.5v28.18h6.29c2.35,0,4.05-.14,5.09-.41,1.38-.35,2.51-.94,3.4-1.77.91-.83,1.64-2.2,2.2-4.1.58-1.9.86-4.51.86-7.8s-.28-5.81-.86-7.57c-.57-1.76-1.37-3.13-2.39-4.12-1.02-.98-2.32-1.65-3.9-2-1.17-.27-3.48-.41-6.92-.41h-3.79ZM649.71,144.3h15.43c3.48,0,6.14.27,7.96.81,2.45.73,4.56,2.04,6.3,3.92,1.76,1.87,3.08,4.17,4,6.9.91,2.71,1.37,6.07,1.37,10.06,0,3.51-.43,6.52-1.29,9.06-1.04,3.1-2.54,5.61-4.48,7.52-1.46,1.46-3.44,2.59-5.93,3.4-1.86.6-4.35.9-7.47.9h-15.89v-42.56Z"/>
    <path class="cls-4" d="M739.36,165.56c0,4.83,1.1,8.48,3.3,10.98,2.2,2.49,4.99,3.74,8.36,3.74s6.16-1.24,8.33-3.71c2.17-2.48,3.25-6.18,3.25-11.13s-1.05-8.53-3.17-10.93c-2.11-2.41-4.91-3.61-8.41-3.61s-6.31,1.22-8.45,3.65c-2.14,2.44-3.21,6.1-3.21,11.01M730.64,165.84c0-4.34.64-7.99,1.92-10.94.95-2.17,2.25-4.12,3.9-5.85,1.65-1.72,3.45-3,5.41-3.84,2.61-1.12,5.63-1.68,9.05-1.68,6.19,0,11.12,1.95,14.84,5.85,3.71,3.9,5.56,9.32,5.56,16.27s-1.84,12.28-5.52,16.16c-3.68,3.89-8.61,5.84-14.76,5.84s-11.2-1.93-14.88-5.81c-3.68-3.86-5.52-9.19-5.52-15.99Z"/>
    <path class="cls-1" d="M107.63,0c59.44,0,107.63,48.19,107.63,107.63s-48.19,107.63-107.63,107.63S0,167.07,0,107.63,48.19,0,107.63,0"/>
    <path class="cls-3" d="M157.13,197.23c-14.67,8.12-31.54,12.75-49.5,12.75-56.53,0-102.35-45.83-102.35-102.36,0-15.39,3.4-29.98,9.49-43.08h115.92c32.99,0,29.45,51.14,2.39,51.14h-29.1l53.15,81.55Z"/>
    <path class="cls-2" d="M107.63,5.27c56.53,0,102.35,45.83,102.35,102.36,0,29.32-12.33,55.76-32.09,74.42l-23.59-36.15c51.9-19.49,48.03-116.93-20.04-116.93H42.15C59.9,14.17,82.72,5.27,107.63,5.27"/>
    <path class="cls-2" d="M149.25,201.16c-10.11,4.51-21.09,7.43-32.62,8.43h-1.71l-47.44-71.94v64.15c-11.61-4.96-22.11-12-31.04-20.65v-105.45h31.04l81.77,125.46Z"/>
  </g>
</svg>