<svg width="775" height="281" viewBox="0 0 775 281" fill="none" xmlns="http://www.w3.org/2000/svg">
<path d="M380.66 123L359.24 91.36L349.3 101.16V123H330.54V20.8H349.3V82.68L378.84 49.78H398.72L371.42 80.86L400.68 123H380.66ZM402.883 101.3C402.883 96.54 404.189 92.3867 406.803 88.84C409.509 85.2 413.243 82.4 418.003 80.44C422.763 78.48 428.223 77.5 434.383 77.5C437.463 77.5 440.589 77.7333 443.763 78.2C446.936 78.6667 449.689 79.4133 452.023 80.44V76.52C452.023 71.8533 450.623 68.26 447.823 65.74C445.116 63.22 441.056 61.96 435.643 61.96C431.629 61.96 427.803 62.66 424.163 64.06C420.523 65.46 416.696 67.5133 412.683 70.22L406.663 57.9C411.516 54.7267 416.463 52.3467 421.503 50.76C426.636 49.1733 432.003 48.38 437.603 48.38C448.056 48.38 456.176 50.9933 461.963 56.22C467.843 61.4467 470.783 68.9133 470.783 78.62V102C470.783 103.96 471.109 105.36 471.763 106.2C472.509 107.04 473.676 107.553 475.263 107.74V123C473.583 123.28 472.043 123.513 470.643 123.7C469.336 123.887 468.216 123.98 467.283 123.98C463.549 123.98 460.703 123.14 458.743 121.46C456.876 119.78 455.709 117.727 455.243 115.3L454.823 111.52C451.649 115.627 447.683 118.8 442.923 121.04C438.163 123.28 433.309 124.4 428.363 124.4C423.509 124.4 419.123 123.42 415.203 121.46C411.376 119.407 408.343 116.653 406.103 113.2C403.956 109.653 402.883 105.687 402.883 101.3ZM448.523 105.08C449.549 103.96 450.389 102.84 451.043 101.72C451.696 100.6 452.023 99.5733 452.023 98.64V91.22C449.783 90.2867 447.356 89.5867 444.743 89.12C442.129 88.56 439.656 88.28 437.323 88.28C432.469 88.28 428.456 89.3533 425.283 91.5C422.203 93.5533 420.663 96.3067 420.663 99.76C420.663 101.627 421.176 103.4 422.203 105.08C423.229 106.76 424.723 108.113 426.683 109.14C428.643 110.167 430.976 110.68 433.683 110.68C436.483 110.68 439.236 110.167 441.943 109.14C444.649 108.02 446.843 106.667 448.523 105.08ZM488.313 123V49.64H507.073V123H488.313ZM488.313 39.42V20.8H507.073V39.42H488.313ZM557.877 124.4C551.904 124.4 546.537 123.42 541.777 121.46C537.017 119.407 532.957 116.607 529.597 113.06C526.33 109.513 523.81 105.453 522.037 100.88C520.264 96.3067 519.377 91.5 519.377 86.46C519.377 81.3267 520.264 76.4733 522.037 71.9C523.81 67.3267 526.33 63.2667 529.597 59.72C532.957 56.1733 537.017 53.42 541.777 51.46C546.537 49.4067 551.904 48.38 557.877 48.38C563.85 48.38 569.17 49.4067 573.837 51.46C578.597 53.42 582.657 56.1733 586.017 59.72C589.377 63.2667 591.897 67.3267 593.577 71.9C595.35 76.4733 596.237 81.3267 596.237 86.46C596.237 91.5 595.35 96.3067 593.577 100.88C591.897 105.453 589.377 109.513 586.017 113.06C582.75 116.607 578.737 119.407 573.977 121.46C569.217 123.42 563.85 124.4 557.877 124.4ZM538.697 86.46C538.697 90.7533 539.537 94.58 541.217 97.94C542.897 101.207 545.184 103.773 548.077 105.64C550.97 107.507 554.237 108.44 557.877 108.44C561.424 108.44 564.644 107.507 567.537 105.64C570.43 103.68 572.717 101.067 574.397 97.8C576.17 94.44 577.057 90.6133 577.057 86.32C577.057 82.12 576.17 78.34 574.397 74.98C572.717 71.62 570.43 69.0067 567.537 67.14C564.644 65.2733 561.424 64.34 557.877 64.34C554.237 64.34 550.97 65.32 548.077 67.28C545.184 69.1467 542.897 71.76 541.217 75.12C539.537 78.3867 538.697 82.1667 538.697 86.46ZM326.06 212.32C326.06 205.227 327.46 198.833 330.26 193.14C333.06 187.353 336.933 182.78 341.88 179.42C346.827 176.06 352.473 174.38 358.82 174.38C364.233 174.38 369.087 175.733 373.38 178.44C377.767 181.053 381.173 184.413 383.6 188.52V146.8H402.36V228C402.36 229.96 402.687 231.36 403.34 232.2C403.993 233.04 405.113 233.553 406.7 233.74V249C403.433 249.653 400.773 249.98 398.72 249.98C395.36 249.98 392.56 249.14 390.32 247.46C388.173 245.78 386.96 243.587 386.68 240.88L386.4 236.26C383.693 240.833 380.007 244.333 375.34 246.76C370.767 249.187 365.96 250.4 360.92 250.4C355.88 250.4 351.213 249.42 346.92 247.46C342.72 245.5 339.033 242.793 335.86 239.34C332.78 235.887 330.353 231.873 328.58 227.3C326.9 222.633 326.06 217.64 326.06 212.32ZM383.6 222.12V204.62C382.667 201.913 381.173 199.487 379.12 197.34C377.067 195.193 374.78 193.513 372.26 192.3C369.74 190.993 367.22 190.34 364.7 190.34C361.807 190.34 359.193 190.947 356.86 192.16C354.527 193.373 352.473 195.007 350.7 197.06C349.02 199.113 347.713 201.493 346.78 204.2C345.94 206.907 345.52 209.753 345.52 212.74C345.52 215.727 345.987 218.573 346.92 221.28C347.947 223.893 349.393 226.18 351.26 228.14C353.127 230.1 355.273 231.64 357.7 232.76C360.22 233.88 362.927 234.44 365.82 234.44C367.593 234.44 369.367 234.16 371.14 233.6C373.007 232.947 374.733 232.107 376.32 231.08C378 229.96 379.447 228.653 380.66 227.16C381.967 225.573 382.947 223.893 383.6 222.12ZM454.794 250.4C448.914 250.4 443.594 249.42 438.834 247.46C434.074 245.407 430.014 242.653 426.654 239.2C423.294 235.653 420.681 231.64 418.814 227.16C417.041 222.587 416.154 217.78 416.154 212.74C416.154 205.74 417.694 199.347 420.774 193.56C423.948 187.773 428.428 183.153 434.214 179.7C440.094 176.153 447.001 174.38 454.934 174.38C462.961 174.38 469.821 176.153 475.514 179.7C481.208 183.153 485.548 187.773 488.534 193.56C491.614 199.253 493.154 205.413 493.154 212.04C493.154 213.16 493.108 214.327 493.014 215.54C492.921 216.66 492.828 217.593 492.734 218.34H436.034C436.408 222.073 437.481 225.34 439.254 228.14C441.121 230.94 443.454 233.087 446.254 234.58C449.148 235.98 452.228 236.68 455.494 236.68C459.228 236.68 462.728 235.793 465.994 234.02C469.354 232.153 471.641 229.727 472.854 226.74L488.954 231.22C487.181 234.953 484.614 238.267 481.254 241.16C477.988 244.053 474.114 246.34 469.634 248.02C465.154 249.607 460.208 250.4 454.794 250.4ZM435.614 206.44H473.974C473.601 202.707 472.528 199.487 470.754 196.78C469.074 193.98 466.834 191.833 464.034 190.34C461.234 188.753 458.108 187.96 454.654 187.96C451.294 187.96 448.214 188.753 445.414 190.34C442.708 191.833 440.468 193.98 438.694 196.78C437.014 199.487 435.988 202.707 435.614 206.44ZM531.603 250.4C525.35 250.4 519.376 249.373 513.683 247.32C507.99 245.267 503.09 242.233 498.983 238.22L505.703 226.04C510.09 229.587 514.383 232.2 518.583 233.88C522.876 235.56 526.983 236.4 530.903 236.4C534.543 236.4 537.436 235.747 539.583 234.44C541.823 233.133 542.943 231.173 542.943 228.56C542.943 226.787 542.336 225.433 541.123 224.5C539.91 223.473 538.136 222.587 535.803 221.84C533.563 221.093 530.81 220.253 527.543 219.32C522.13 217.547 517.603 215.82 513.963 214.14C510.323 212.46 507.57 210.36 505.703 207.84C503.93 205.227 503.043 201.913 503.043 197.9C503.043 193.047 504.256 188.893 506.683 185.44C509.203 181.893 512.656 179.14 517.043 177.18C521.523 175.22 526.75 174.24 532.723 174.24C537.95 174.24 542.896 175.08 547.563 176.76C552.23 178.347 556.476 180.96 560.303 184.6L552.743 196.5C549.01 193.607 545.463 191.507 542.103 190.2C538.743 188.8 535.336 188.1 531.883 188.1C529.923 188.1 528.056 188.333 526.283 188.8C524.603 189.267 523.203 190.06 522.083 191.18C521.056 192.207 520.543 193.7 520.543 195.66C520.543 197.433 521.01 198.833 521.943 199.86C522.97 200.793 524.463 201.633 526.423 202.38C528.476 203.127 530.95 203.967 533.843 204.9C539.723 206.58 544.67 208.307 548.683 210.08C552.79 211.853 555.87 214.047 557.923 216.66C559.976 219.18 561.003 222.68 561.003 227.16C561.003 234.44 558.343 240.133 553.023 244.24C547.703 248.347 540.563 250.4 531.603 250.4ZM573.763 249V175.64H592.523V249H573.763ZM573.763 165.42V146.8H592.523V165.42H573.763ZM638.146 249.42C633.293 249.42 628.813 248.487 624.706 246.62C620.693 244.66 617.193 241.953 614.206 238.5C611.313 235.047 609.073 231.08 607.486 226.6C605.9 222.12 605.106 217.36 605.106 212.32C605.106 207 605.946 202.053 607.626 197.48C609.306 192.907 611.64 188.893 614.626 185.44C617.706 181.893 621.3 179.187 625.406 177.32C629.606 175.36 634.226 174.38 639.266 174.38C644.96 174.38 649.953 175.687 654.246 178.3C658.54 180.82 662.086 184.227 664.886 188.52V175.64H681.266V245.5C681.266 252.78 679.493 258.987 675.946 264.12C672.493 269.347 667.686 273.313 661.526 276.02C655.366 278.82 648.366 280.22 640.526 280.22C632.593 280.22 625.873 278.867 620.366 276.16C614.86 273.547 610.146 269.813 606.226 264.96L616.446 255.02C619.246 258.473 622.746 261.18 626.946 263.14C631.24 265.1 635.766 266.08 640.526 266.08C644.54 266.08 648.18 265.333 651.446 263.84C654.806 262.44 657.466 260.2 659.426 257.12C661.48 254.133 662.506 250.26 662.506 245.5V236.26C660.08 240.46 656.626 243.727 652.146 246.06C647.76 248.3 643.093 249.42 638.146 249.42ZM644.446 234.44C646.5 234.44 648.46 234.113 650.326 233.46C652.193 232.807 653.92 231.92 655.506 230.8C657.093 229.68 658.493 228.373 659.706 226.88C660.92 225.293 661.853 223.707 662.506 222.12V204.62C661.386 201.727 659.8 199.207 657.746 197.06C655.786 194.913 653.546 193.28 651.026 192.16C648.6 190.947 646.033 190.34 643.326 190.34C640.433 190.34 637.82 190.947 635.486 192.16C633.153 193.373 631.146 195.1 629.466 197.34C627.786 199.487 626.48 201.913 625.546 204.62C624.706 207.233 624.286 209.987 624.286 212.88C624.286 215.867 624.8 218.667 625.826 221.28C626.853 223.893 628.253 226.18 630.026 228.14C631.893 230.1 634.04 231.64 636.466 232.76C638.986 233.88 641.646 234.44 644.446 234.44ZM766.357 249H747.597V207.84C747.597 201.96 746.57 197.667 744.517 194.96C742.463 192.253 739.617 190.9 735.977 190.9C733.457 190.9 730.89 191.553 728.277 192.86C725.757 194.167 723.47 195.987 721.417 198.32C719.363 200.56 717.87 203.173 716.937 206.16V249H698.177V175.64H715.117V189.22C716.983 186.047 719.363 183.387 722.257 181.24C725.15 179 728.463 177.32 732.197 176.2C736.023 174.987 740.037 174.38 744.237 174.38C748.81 174.38 752.543 175.22 755.437 176.9C758.423 178.487 760.663 180.68 762.157 183.48C763.743 186.187 764.817 189.267 765.377 192.72C766.03 196.173 766.357 199.673 766.357 203.22V249Z" fill="white"/>
<path fill-rule="evenodd" clip-rule="evenodd" d="M151.621 0C133.155 35.8448 95.9738 114.659 107.123 148.451C112.531 164.845 117.8 173.794 129.226 186.735C152.853 213.496 233.386 217.765 274 218.164C274 218.109 274 218.055 274 218V56C274 25.0721 248.928 0 218 0H151.621ZM109.375 0L64.7147 137.216L4.75998 33.3718C13.4531 13.7156 33.1248 0 56 0H109.375ZM259.71 255.368L117.751 229.079L143.687 274H218C234.569 274 249.457 266.804 259.71 255.368ZM92.3499 274L79.2487 251.308L73.0616 274H92.3499ZM29.4173 267.301L36.8408 240.074L12.9783 253.851C17.535 259.313 23.1123 263.894 29.4173 267.301ZM0 210.298L14.7372 201.789L0 197.905V210.298ZM0 152.536L26.2121 159.446L0 114.045V152.536Z" fill="white"/>
</svg>
