<svg width="63" height="18" viewBox="0 0 63 18" fill="none" xmlns="http://www.w3.org/2000/svg">
<path d="M23.71 11.593C25.86 11.593 27.79 9.62303 27.79 7.26303C27.79 4.90303 25.86 2.93304 23.71 2.93304H21.99V9.86304C21.99 10.823 22.76 11.593 23.71 11.593ZM19.42 0.433044H23.71C27.25 0.433044 30.37 3.57305 30.37 7.25305C30.37 10.9331 27.26 14.073 23.71 14.073C21.34 14.073 19.42 12.133 19.42 9.74304V0.433044Z" fill="#F6F6F6"/>
<path d="M33.25 3.96304C33.93 3.96304 34.48 4.51303 34.48 5.20303V9.56305C34.48 10.853 35.32 11.713 36.52 11.713C37.72 11.713 38.56 10.853 38.56 9.56305V5.20303C38.56 4.52303 39.11 3.96304 39.8 3.96304C40.49 3.96304 41.03 4.51303 41.03 5.20303V12.1331C41.03 13.1431 40.21 13.963 39.2 13.963L38.77 12.993C38.53 13.183 38.25 13.3831 37.97 13.5331C37.48 13.8131 36.77 14.073 35.97 14.073C33.63 14.073 32 12.4631 32 9.88306V5.20303C32 4.52303 32.55 3.96304 33.24 3.96304" fill="#F6F6F6"/>
<path d="M50.11 9.02304C50.11 7.39304 49.04 6.34305 47.64 6.34305C46.24 6.34305 45.17 7.39304 45.17 9.02304C45.17 10.653 46.24 11.703 47.64 11.703C49.04 11.703 50.11 10.653 50.11 9.02304ZM43.93 0.433044C44.61 0.433044 45.16 0.983035 45.16 1.67303V4.95303C45.35 4.78303 45.59 4.63303 45.85 4.48303C46.3 4.24303 46.9 3.99304 47.74 3.99304C50.21 3.99304 52.36 6.12303 52.36 9.04303C52.36 11.963 50.21 14.093 47.74 14.093C46.88 14.093 46.19 13.833 45.7 13.553C45.42 13.403 45.16 13.213 44.95 13.013L44.52 13.983C43.51 13.983 42.69 13.1631 42.69 12.1631V1.69305C42.69 1.01305 43.24 0.453033 43.93 0.453033" fill="#F6F6F6"/>
<path d="M53.99 17.363C53.99 16.413 54.49 15.563 55.25 14.993C55.56 14.763 55.77 14.443 55.93 14.063L56.14 13.523L53.32 6.41306C52.86 5.25306 53.71 3.99304 54.95 3.99304L57.43 10.493L58.84 6.45303C59.35 4.98303 60.73 4.00305 62.28 4.00305L60.36 8.94305C59.39 11.4531 58.42 14.053 58.29 14.293C57.32 16.653 56.46 17.543 54.84 17.543C54.6 17.543 54.39 17.5231 54.24 17.5031L53.98 17.433V17.3831L53.99 17.363Z" fill="#F6F6F6"/>
<path d="M12.95 5.36305C14.07 7.31305 13.32 10.093 11.19 11.323C9.06002 12.553 6.27001 11.8231 5.15001 9.87306L4.58001 8.89305C4.40001 8.57305 4.51001 8.16306 4.83001 7.97306L11.47 4.14305C11.79 3.95305 12.2 4.06307 12.39 4.38307L12.96 5.36305H12.95ZM12.94 0.163065L9.33001 2.25306C8.37001 2.81306 7.3 1.90304 6.14 2.57304C4.77 3.36304 5.40001 4.52304 4.27001 5.17304L0.660024 7.26304C0.0300239 7.63304 -0.189987 8.44305 0.180013 9.08305C0.470013 9.58305 1.03003 9.82306 1.57003 9.72306C1.84003 9.67306 2.12003 9.78305 2.26003 10.0231L2.92 11.173C4.59 14.063 8.37001 15.3231 11.52 14.1531C11.69 14.0931 11.87 14.0831 12.03 14.1531C12.27 14.2631 12.56 14.263 12.81 14.113C13.06 13.973 13.21 13.723 13.23 13.453C13.25 13.273 13.34 13.123 13.48 13.013C16.08 10.863 16.88 6.96304 15.21 4.07304L14.56 2.95304C14.42 2.71304 14.44 2.40306 14.63 2.19306C14.98 1.77306 15.06 1.16307 14.77 0.663065C14.41 0.0330652 13.6 -0.186956 12.96 0.173044" fill="#F6F6F6"/>
</svg>
