<?xml version="1.0" encoding="UTF-8"?>
<svg id="Camada_2" data-name="Camada 2" xmlns="http://www.w3.org/2000/svg" viewBox="0 0 167.26 134.63">
  <defs>
    <style>
      .cls-1 {
        fill: #fff;
      }
    </style>
  </defs>
  <g id="Camada_1-2" data-name="Camada 1">
    <path class="cls-1" d="M81.59,28.94c-1.78-4.38-2.09-7.93.31-12.73,2.4-4.8,6.57-2.19,6.57-2.19-2.61-1.88-5.95-3.76-17.22-3.03-11.27.73-8.98,13.04-8.98,13.04,4.9.73,4.9,2.19,4.9,2.19-1.77-.11-3.96.94-3.96.94.52,1.25,2.3,1.67,2.3,1.67,4.8-3.65,9.29-.31,9.29-.31,16.28,13.15,16.49,9.29,16.49,9.29-5.11-1.56-7.93-4.48-9.7-8.87M77.59,23.72c-.97-1.42-2.31-2.57-4.06-3.28.6,1.72,1.55,2.78,3.3,4.03h-10c1.73-1.25,2.71-2.31,3.3-4.03-1.74.7-3.1,1.86-4.06,3.28v-10c.96,1.41,2.31,2.57,4.06,3.27-.59-1.72-1.57-2.78-3.3-4.03h10c-1.75,1.25-2.7,2.31-3.3,4.03,1.75-.7,3.09-1.86,4.06-3.27v10ZM92.71,52.77c.31-.1,4.49,2.51,8.45.31,0,0-3.65,6.05-8.14-.42l-.31.1ZM89.93,48.88c.31-.11,4.48,2.5,8.45.31,0,0-3.65,6.05-8.14-.42l-.31.11ZM99.22,48.88s-.63-2.92,3.13-2.3c3.76.63,4.38,2.92,7.62.42,0,0-3.55,5.64-10.75,1.88ZM58.04,50.91s1.15-3.34,7.3-.21c6.15,3.13,6.99,1.04,8.14.21,0,0-1.88,4.9-8.55,1.36-6.68-3.55-6.05,0-6.89-1.36ZM96.68,52.04s1.15-3.34,7.31-.21c6.15,3.13,6.99,1.04,8.14.21,0,0-1.88,4.9-8.56,1.36-6.68-3.55-6.05,0-6.89-1.36ZM76.92,53.99s1.15-3.34,7.31-.21c6.16,3.13,6.99,1.04,8.14.21,0,0-1.88,4.91-8.56,1.36-6.68-3.55-6.05,0-6.89-1.36ZM73.86,49.82s1.15-3.34,7.3-.21c6.16,3.13,6.99,1.04,8.14.21,0,0-1.88,4.9-8.56,1.36-6.68-3.55-6.06,0-6.89-1.36ZM64.85,49.21s0-3.24,3.89-1.8c3.89,1.44,3.96,1.73,5.4,1.3,0,0-6.62,2.45-9.28.51ZM71.98,37.4s-4.49,6.15,3.34,10.12c0,0,2.09-1.15,6.68,1.05,4.59,2.19,5.63,1.67,6.36.83l1.25-1.67s6.37,1.46,8.76.94c0,0,.94-3.34,3.34-2.82l2.61,1.04,6.78-16.69.21-3.55-11.89,1.57s-.52,3.34-2.82,4.69c0,0-3.86,9.29-10.43,6.99,0,0-4.59-.94-4.59-5.95l-15.45-.53-.1.84,5.95,3.13ZM105.06,13.19s2.4-2.29,5.94-3.44c0,0-3.75,3.02-4.38,4.49l-1.56-1.05ZM97.24,31.03s-1.78-8.24,5.01-15.13c0,0,1.56,0,2.4.42,0,0-1.57,6.67,3.34,10.43,0,0-9.08-3.24-10.75,4.28ZM85.55,11.52s3.86-3.75,12.52-.31l8.66,3.45s.62,1.04-1.15,1.35c0,0-6.89-4.28-12.31,2.09-5.43,6.36-1.67,15.03-.1,17.32,0,0-7.72-7.93-10.54-5.32,0,0-4.49-9.81,1.36-15.55,0,0,2.3-1.67,4.8,0,0,0,.31-1.36-3.23-3.03ZM82.52,8.18S81.27-.69,92.43.04c0,0,4.9.52,5.95,2.4,0,0-3.44-.94-3.86.73-.42,1.67,1.04,3.86,3.34,6.26l1.98,1.88s-5.32-3.86-8.14-4.18c-2.82-.31-4.07-1.14-9.19,1.05ZM70.42,10.16s-2.92-4.7,1.98-7.3c4.9-2.61,8.45-.83,10.43-.1,0,0-3.13-.42-2.61,2.61.52,3.03,3.02,5.32,4.28,5.95,0,0-2.92-.94-6.89-3.97-3.96-3.03-8.03.42-7.2,2.82ZM62.69,36.46s-6.57,2.82-7.51-5.63c-.94-8.45,11.27-5.43,11.37-5.01,0,0-6.47-.21-4.38,6.16,2.08,6.37,5.95,5.01,8.24,4.91,0,0-4.8,2.92-8.87-3.45,0,0-1.77-2.61-3.55,0,0,0-1.04,2.92,4.69,3.03Z"/>
    <path class="cls-1" d="M167.26,114.12c0,6.17-1.75,11.13-5.25,14.88-3.5,3.75-8.4,5.63-14.68,5.63s-10.59-1.73-13.85-5.2c-3.27-3.47-4.9-8.16-4.9-14.08s1.76-11.05,5.28-14.64c3.52-3.59,8.39-5.39,14.63-5.39s10.61,1.68,13.88,5.04c3.27,3.36,4.9,7.95,4.9,13.76M134.42,114.47c0,5.81,1.18,10.26,3.53,13.36,2.35,3.09,5.8,4.64,10.35,4.64s7.78-1.4,9.91-4.21c2.13-2.81,3.2-7.21,3.2-13.23,0-5.63-1.13-9.96-3.4-12.99-2.26-3.03-5.76-4.55-10.48-4.55s-7.91,1.4-9.99,4.21c-2.08,2.81-3.12,7.06-3.12,12.77ZM113.23,133.64c-2.19,0-4.62.03-7.27.08l-.11-1.15,3.96-1.18c.45-.13.68-.4.7-.83.03-1.36.05-3.09.05-5.19v-26.69h-9.44l-2.38,7.11-1.07.19-.7-9.57.19-.21c4.39.07,8.58.11,12.59.11h7.14c3.99,0,8.21-.03,12.65-.11l.16.21-1.68,9.39-1.07.19-1.71-7.3h-9.44v26.69c0,2.1.02,3.84.05,5.19.02.43.25.7.7.83l3.96,1.18.05,1.15c-2.76-.05-5.21-.08-7.33-.08ZM78.63,125.43c0,1.07,0,2.03.01,2.89,0,.85.02,1.63.04,2.33.02.55.25.9.7,1.04l2.97.88.08,1.15c-2.12-.06-4.24-.08-6.36-.08s-4.37.03-6.63.08l-.11-1.15,3.29-.99c.44-.13.69-.4.72-.83.02-.71.03-1.51.04-2.39,0-.88.01-1.86.01-2.93v-21.69c0-.91,0-1.73-.01-2.46,0-.73-.02-1.39-.04-1.98-.02-.46-.23-.77-.64-.91l-3.32-1.04-.05-1.15c2.3.07,4.55.11,6.74.11.43,0,.98-.01,1.65-.04.67-.03,1.48-.06,2.43-.09.97-.04,1.78-.06,2.43-.08.65-.02,1.16-.03,1.54-.03,4.11,0,7.19.77,9.24,2.3,2.05,1.53,3.08,3.77,3.08,6.71,0,2.66-.71,4.81-2.12,6.46-1.41,1.65-3.56,2.92-6.45,3.81,1.14,1.71,2.19,3.37,3.14,4.96.96,1.6,1.85,3.06,2.67,4.39.82,1.33,1.57,2.5,2.26,3.51.68,1.02,1.32,1.82,1.91,2.41.3.3.61.56.91.79.3.22.62.4.95.55.33.14.68.27,1.04.37.37.11.77.21,1.22.32l.08,1.18c-1.28.16-2.36.24-3.24.24-.73,0-1.37-.02-1.93-.05-.56-.04-1.05-.11-1.48-.21-.43-.11-.83-.25-1.18-.42-.35-.17-.7-.39-1.04-.65-.74-.55-1.47-1.35-2.18-2.39-.71-1.04-1.45-2.22-2.22-3.54-.77-1.32-1.57-2.72-2.4-4.21-.83-1.49-1.71-2.95-2.63-4.37-.27-.43-.5-.77-.69-1.01-.19-.25-.4-.45-.62-.59-.23-.14-.49-.24-.79-.3-.3-.05-.68-.09-1.15-.11l-1.87-.05v9.28ZM78.63,114.14c1.09.05,2.1.08,3.02.08,3.08,0,5.34-.66,6.78-1.97,1.43-1.31,2.15-3.36,2.15-6.16s-.69-4.69-2.06-5.94c-1.37-1.25-3.52-1.87-6.45-1.87-.5,0-1.03.02-1.6.05-.57.04-1.19.09-1.85.16v15.65ZM67.31,114.12c0,6.17-1.75,11.13-5.25,14.88-3.5,3.75-8.4,5.63-14.68,5.63s-10.59-1.73-13.86-5.2c-3.27-3.47-4.9-8.16-4.9-14.08s1.76-11.05,5.28-14.64c3.52-3.59,8.39-5.39,14.63-5.39s10.61,1.68,13.88,5.04c3.27,3.36,4.9,7.95,4.9,13.76ZM34.47,114.47c0,5.81,1.18,10.26,3.53,13.36,2.35,3.09,5.8,4.64,10.35,4.64s7.78-1.4,9.91-4.21c2.13-2.81,3.2-7.21,3.2-13.23,0-5.63-1.13-9.96-3.4-12.99-2.26-3.03-5.76-4.55-10.48-4.55s-7.91,1.4-9.99,4.21c-2.08,2.81-3.12,7.06-3.12,12.77ZM9.31,125.43c0,1.07,0,2.04.01,2.89,0,.85.02,1.62.04,2.3.02.41.25.68.69.83l3.69,1.12.05,1.15c-2.59-.06-4.94-.08-7.06-.08s-4.37.03-6.63.08l-.11-1.15,3.29-.99c.46-.14.7-.42.72-.83.02-.71.03-1.51.04-2.39,0-.88.01-1.86.01-2.93v-21.69c0-.91,0-1.73-.01-2.46,0-.73-.02-1.39-.04-1.98-.02-.47-.23-.77-.64-.91l-3.32-1.04-.05-1.15c2.3.07,4.55.11,6.73.11,1.47,0,2.9-.04,4.27-.11,1.38-.07,2.63-.11,3.76-.11,4.22,0,7.42.82,9.58,2.47,2.17,1.65,3.25,4.11,3.25,7.37,0,3.83-1.25,6.81-3.76,8.93-2.5,2.12-6.02,3.18-10.54,3.18-1.24,0-2.58-.08-4-.24v7.62ZM9.31,115.56c1.25.22,2.48.32,3.69.32,2.85,0,5.02-.73,6.51-2.21,1.49-1.47,2.23-3.72,2.23-6.75s-.71-5.07-2.12-6.5c-1.42-1.43-3.65-2.14-6.7-2.14-1.19,0-2.4.07-3.61.21v17.06ZM163.43,77.99c0,4-1.13,7.2-3.4,9.63-2.27,2.43-5.43,3.64-9.5,3.64s-6.85-1.12-8.97-3.37c-2.12-2.25-3.17-5.28-3.17-9.11s1.14-7.15,3.42-9.47c2.28-2.32,5.43-3.49,9.47-3.49s6.87,1.09,8.99,3.26c2.12,2.17,3.17,5.14,3.17,8.9ZM142.17,78.21c0,3.76.76,6.64,2.29,8.65,1.52,2,3.76,3,6.7,3s5.03-.91,6.41-2.73c1.38-1.82,2.07-4.67,2.07-8.56,0-3.65-.73-6.45-2.2-8.41-1.47-1.96-3.73-2.94-6.78-2.94s-5.12.91-6.46,2.73c-1.34,1.82-2.02,4.57-2.02,8.27ZM118.21,90.63c-1.4,0-2.83.02-4.29.05l-.07-.74,2.13-.64c.3-.09.46-.27.47-.54.01-.46.02-.98.03-1.55,0-.57,0-1.2,0-1.89v-14.04c0-.59,0-1.12,0-1.59,0-.47-.01-.9-.03-1.28-.01-.3-.15-.49-.41-.59l-2.15-.67-.03-.74c1.49.05,2.94.07,4.34.07,1.15,0,2.27-.03,3.34-.08,1.07-.06,2.17-.09,3.3-.09,4.03,0,7.07.92,9.1,2.76,2.03,1.84,3.04,4.57,3.04,8.2,0,4.27-1.13,7.58-3.38,9.94-2.25,2.36-5.42,3.54-9.49,3.54-1.12,0-2.12-.02-2.99-.05-.88-.03-1.84-.05-2.9-.05ZM119.88,89.09c.68.09,1.35.15,2,.18.65.03,1.31.04,1.96.04,3.05,0,5.37-.9,6.96-2.69,1.59-1.79,2.39-4.54,2.39-8.25s-.76-6.27-2.27-8.01c-1.51-1.74-3.91-2.6-7.18-2.6-.52,0-1.09.01-1.72.04-.63.02-1.34.06-2.14.12v21.17ZM103.15,67.97c-1.21-.4-2.32-.61-3.34-.61-1.52,0-2.74.37-3.64,1.11-.91.74-1.36,1.77-1.36,3.08,0,.75.16,1.41.48,1.98.32.56.74,1.06,1.28,1.49.54.43,1.15.81,1.83,1.14.68.34,1.38.66,2.11.99.8.34,1.57.71,2.32,1.1.75.39,1.43.84,2.03,1.36.6.52,1.09,1.14,1.45,1.87.36.73.55,1.57.55,2.54,0,2.3-.9,4.05-2.69,5.26-1.79,1.21-4.12,1.82-6.97,1.82-1.83,0-3.87-.31-6.09-.94l-.1-.14.85-5.88.78-.12,1.21,4.92c1.22.49,2.47.73,3.76.73,1.72,0,3.06-.38,4.02-1.14.96-.76,1.45-1.85,1.45-3.25,0-.74-.16-1.39-.47-1.95-.31-.56-.73-1.04-1.25-1.45-.53-.4-1.12-.77-1.79-1.1-.67-.33-1.36-.65-2.08-.98-.81-.35-1.59-.72-2.36-1.12-.76-.4-1.45-.88-2.07-1.41-.62-.54-1.11-1.2-1.48-1.97-.37-.78-.55-1.69-.55-2.73,0-2.09.87-3.7,2.62-4.84,1.75-1.15,3.91-1.72,6.5-1.72,1.82,0,3.73.21,5.73.64l.12.12-1.02,5.4-.69.12-1.13-4.31ZM80.72,66.03l7.69,21.17c.29.8.55,1.33.79,1.62.24.28.57.49,1.01.63l1.63.49.04.75c-1.51-.04-2.92-.05-4.21-.05s-2.87.02-4.66.05l-.07-.75,1.64-.49c.23-.08.4-.17.49-.27.1-.1.15-.25.15-.46,0-.23-.06-.53-.18-.91-.12-.38-.29-.87-.51-1.5l-1.63-4.64h-8.34l-1.82,4.62c-.24.65-.43,1.16-.57,1.54-.14.38-.21.68-.21.9,0,.2.05.34.17.44.11.1.27.18.49.25l1.61.47.03.78c-1.64-.04-2.98-.05-4.02-.05s-2.2.02-3.48.05l-.09-.75,1.75-.54c.44-.14.76-.35.97-.64.21-.29.44-.74.69-1.35l8.85-21.12,1.78-.26ZM75.2,80.1h7.13l-3.37-9.54-3.76,9.54ZM45.73,66.39c1.49.05,2.92.07,4.29.07s2.82-.02,4.29-.07l.07.74-2.15.64c-.28.07-.43.25-.45.54,0,.41-.02.84-.02,1.32,0,.48,0,1,0,1.56v9.47c0,3.3.52,5.59,1.57,6.86,1.05,1.28,2.74,1.91,5.07,1.91s4.08-.66,5.14-1.97c1.06-1.32,1.59-3.52,1.59-6.6v-9.68c0-.56,0-1.09,0-1.56,0-.48-.02-.92-.04-1.32-.01-.27-.16-.44-.45-.54l-2.02-.59-.03-.79c1.46.05,2.72.07,3.77.07s2.23-.02,3.67-.07l.07.74-2.18.67c-.27.09-.41.29-.42.59-.01.38-.02.81-.03,1.28,0,.47,0,1,0,1.59v8.88c0,3.79-.77,6.59-2.31,8.4-1.54,1.81-3.97,2.72-7.28,2.72s-5.64-.81-7.18-2.45c-1.55-1.64-2.32-4.17-2.32-7.61v-9.94c0-.59,0-1.12,0-1.59,0-.47-.01-.9-.03-1.28-.01-.3-.15-.5-.41-.59l-2.15-.67-.03-.74ZM42.46,72.43l-.69.1-1.19-4.53c-1.41-.37-2.73-.55-3.96-.55-2.89,0-5.14.98-6.75,2.93-1.62,1.96-2.42,4.65-2.42,8.09s.88,6.23,2.64,8.28c1.76,2.05,4.12,3.07,7.1,3.07,1,0,1.98-.13,2.95-.38v-4.62c0-.58,0-1.1,0-1.58,0-.47-.01-.91-.02-1.3-.01-.3-.15-.49-.42-.57l-2.15-.67-.04-.75c1.49.04,2.92.05,4.28.05s2.73-.02,4.02-.05l.09.75-1.89.55c-.28.09-.43.27-.45.54-.01.46-.02.93-.03,1.41,0,.48,0,.99,0,1.55v5.54l-.1.12c-2.35.57-4.52.85-6.5.85-4.05,0-7.28-1.07-9.68-3.22-2.4-2.15-3.59-5.14-3.59-8.99,0-4.08,1.24-7.28,3.74-9.6,2.49-2.31,5.89-3.47,10.2-3.47,1.86,0,3.81.24,5.85.71l.11.13-1.07,5.59ZM14.24,66.03l7.69,21.17c.29.8.55,1.33.79,1.62.24.28.57.49,1.01.63l1.63.49.04.74c-1.51-.04-2.92-.05-4.21-.05s-2.87.02-4.66.05l-.07-.74,1.64-.49c.23-.08.4-.17.49-.27.1-.1.15-.25.15-.46,0-.23-.06-.53-.18-.91-.12-.38-.29-.87-.51-1.5l-1.63-4.64h-8.35l-1.82,4.62c-.24.65-.43,1.16-.57,1.54-.14.38-.21.68-.21.9,0,.2.05.34.16.44.11.1.27.18.49.25l1.61.47.04.78c-1.64-.04-2.98-.05-4.02-.05s-2.2.02-3.48.05l-.09-.74,1.75-.54c.44-.14.76-.35.97-.64.21-.29.44-.74.69-1.35l8.84-21.12,1.78-.26ZM8.72,80.1h7.13l-3.38-9.54-3.75,9.54ZM17.48,62.01l-7.55,2.72-.47-.8,5.64-4.22,2.37,2.04v.26Z"/>
  </g>
</svg>