<?xml version="1.0" encoding="UTF-8"?>
<svg id="Camada_2" data-name="Camada 2" xmlns="http://www.w3.org/2000/svg" xmlns:xlink="http://www.w3.org/1999/xlink" viewBox="0 0 708.34 258.39">
  <defs>
    <style>
      .cls-1 {
        fill: #feeacd;
      }

      .cls-2 {
        fill: url(#Gradiente_sem_nome);
      }

      .cls-3 {
        fill: url(#Gradiente_sem_nome_2);
      }

      .cls-4 {
        fill: #fdb043;
      }

      .cls-5 {
        fill: #a51c23;
      }

      .cls-6 {
        fill: #fecd87;
      }

      .cls-7 {
        fill: #fee6be;
      }

      .cls-8 {
        fill: #e68f2f;
      }

      .cls-9 {
        fill: #c52530;
      }

      .cls-10 {
        fill: #ce564d;
      }
    </style>
    <linearGradient id="Gradiente_sem_nome" data-name="Gradiente sem nome" x1="129.72" y1="231.16" x2="129.62" y2="252.41" gradientTransform="translate(-22.51 254.79) scale(.88 -.88)" gradientUnits="userSpaceOnUse">
      <stop offset="0" stop-color="#fdbb60"/>
      <stop offset="1" stop-color="#ffd89e"/>
    </linearGradient>
    <linearGradient id="Gradiente_sem_nome_2" data-name="Gradiente sem nome 2" x1="164.51" y1="230.57" x2="166.57" y2="254.64" gradientTransform="translate(-22.51 254.79) scale(.88 -.88)" gradientUnits="userSpaceOnUse">
      <stop offset="0" stop-color="#febb64"/>
      <stop offset="1" stop-color="#ffd99e"/>
    </linearGradient>
  </defs>
  <g id="Camada_1-2" data-name="Camada 1">
    <g>
      <path class="cls-9" d="M83.07,6.3C86.25.23,87.6-.21,94.35.06c10.07,9.62-.17,10.3,2.2,15.06,4.21,8.44,11.33,18.25,16.63,26.34,4.59-2.04,29.84-11.21,31.06-13.27-.03-1.33-.03-2.78-.11-4.1,3.07-5.9,5.91-6.73,11.92-5.25,8.38,7.99,1.51,16.77-9.09,13.25l-7.37,10.67c8.17-.03,16.35-.03,24.52-.12,8.68-.1,18.56-.74,25.18,5.96,2.34,2.36,3.85,5.43,4.3,8.72,1.02,7.38.3,34.31.33,43.35.09,26.01-.22,52.42-.03,78.49.13,18.51-7.63,36.14-20.92,49.03-15.95,15.48-33.48,18.67-54.06,24.85-6.28,1.89-15.97,5.47-22.21,5.34-6.94-.14-17.01-4.04-23.95-6.12-21.12-6.34-37.83-9.52-53.73-26.24-8.07-8.45-13.79-18.85-16.6-30.18C-.25,185.05.06,175.21.05,164.21.01,130.28.29,96.34,0,62.41c-.2-23.79,26.11-19.81,42.64-19.68-1.59-2.19-5.26-6.77-5.9-9.09-6-3.25-8.37,3.53-13.8-6.67,1.12-7.68,5.11-10.23,12.34-7.97,5.68,5.75,1.47,6.78,3.41,11.05,4.47.43,25.63,9.25,30.93,11.45,5.12-8.88,11.52-18.58,17.04-27.33-2.73-3.04-3.2-4.07-3.59-7.87Z"/>
      <path class="cls-2" d="M83.07,6.3C86.25.23,87.6-.21,94.35.06c10.07,9.62-.17,10.3,2.2,15.06,4.21,8.44,11.33,18.25,16.63,26.34,4.59-2.04,29.84-11.21,31.06-13.27-.03-1.33-.03-2.78-.11-4.1,3.07-5.9,5.91-6.73,11.92-5.25,8.38,7.99,1.51,16.77-9.09,13.25-1.04-1.27-.57-.86-2.3-1.39-.75,3.55-4.33,6.43-6.13,10.17-.42,1.4-1,3.13-1.23,4.55l.75-.3-.4.7c-2.68,3.23-4.55,5.98-6.9,9.41l-5.03,6.94-68.8.04-4.82-6.51-3.68-5.22.07-3.51-10.35-13.91-1.39.57c-6-3.25-8.37,3.53-13.8-6.67,1.12-7.68,5.11-10.23,12.34-7.97,5.68,5.75,1.47,6.78,3.41,11.05,4.47.43,25.63,9.25,30.93,11.45,5.12-8.88,11.52-18.58,17.04-27.33-2.73-3.04-3.2-4.07-3.59-7.87Z"/>
      <path class="cls-4" d="M83.07,6.3C86.25.23,87.6-.21,94.35.06c10.07,9.62-.17,10.3,2.2,15.06,4.21,8.44,11.33,18.25,16.63,26.34,4.59-2.04,29.84-11.21,31.06-13.27-.03-1.33-.03-2.78-.11-4.1,3.07-5.9,5.91-6.73,11.92-5.25,8.38,7.99,1.51,16.77-9.09,13.25-1.04-1.27-.57-.86-2.3-1.39-10.58,4.67-22.68,10.63-33.12,14.84-1.16-1.6-3.42-4.93-4.75-6.15-.4-1.22-.67-1.24-1.66-2.21l-2.1-3.13-1.52-1.61c-1.03-1.61-1.93-2.74-3.1-4.23-1.31,2.26-9.94,4.76-12.5,4.6-1.94-1.37-1.42-.67-2.31-2.62l.39-2.67-3.48,4.84c-.63.83-1.52,1.93-2.07,2.77-.92.69-6.88,8.66-8.12,10.15-9.32-4.33-23.23-10.52-32.76-13.87l.57,1.65-1.39.57c-6-3.25-8.37,3.53-13.8-6.67,1.12-7.68,5.11-10.23,12.34-7.97,5.68,5.75,1.47,6.78,3.41,11.05,4.47.43,25.63,9.25,30.93,11.45,5.12-8.88,11.52-18.58,17.04-27.33-2.73-3.04-3.2-4.07-3.59-7.87Z"/>
      <path class="cls-1" d="M90.88,18.25c2.52,2.99,5.17,6.78,7.53,9.96-1.31,2.26-9.94,4.76-12.5,4.6-1.94-1.37-1.42-.67-2.31-2.62l.39-2.67c2.03-2.97,4.7-6.34,6.89-9.27Z"/>
      <path class="cls-1" d="M22.94,26.98c1.12-7.68,5.11-10.23,12.34-7.97-2.28,4.73-7.1,7.84-12.34,7.97Z"/>
      <path class="cls-1" d="M83.07,6.3C86.25.23,87.6-.21,94.35.06c-.67,4.12-4.98,7.8-9.07,8.4-1.73-.99-1.16-.39-2.21-2.15Z"/>
      <path class="cls-1" d="M144.13,24.09c3.07-5.9,5.91-6.73,11.92-5.25-1.87,3.28-5.73,6.49-9.33,7.65l-1.43-.31-1.16-2.1Z"/>
      <path class="cls-4" d="M130.96,51.3c2.75-4.26,4.28-6.56,7.57-10.44-.42,1.4-1,3.13-1.23,4.55l.75-.3-.4.7c-2.68,3.23-4.55,5.98-6.9,9.41l-5.03,6.94-68.8.04-4.82-6.51-3.68-5.22.07-3.51c5.25,8.39,6.12,8.27,16.14,9.08,11.27.91,22.14-.96,33.46-.31,5.35.31,17.98,2.07,22.46.06l-.16-.94c-3.24.01-9.84.27-12.73-.36l.22-.64c13.75-3.2,17.06,6.26,23.1-2.56Z"/>
      <path class="cls-3" d="M144.66,30.69c-.75,3.55-4.33,6.43-6.13,10.17-3.29,3.88-4.82,6.17-7.57,10.44-3.39-.06-5.74-2.7-7.12-2.54-5.67.67-8.71,1.08-14.53.91-2.12,1.93-4.8,4.73-7.45,2.46l1.18-.67-1.29-.07-.34-.57c1.7-.92,1.96-.95,3.04-2.48l-1.13-.88,2.66-.81,2.62-1.01v-.9c-.66-1.26-1.36-3.88-1.8-5.34,1.34,1.22,3.6,4.55,4.75,6.15,10.44-4.21,22.54-10.17,33.12-14.84Z"/>
      <path class="cls-7" d="M98.41,28.21c1.17,1.49,2.07,2.62,3.1,4.23-1.41,3.19-13.14,2.24-16.06,2.06-1.31-.08-3.75-1.45-4.95-2.13l3.48-4.84-.39,2.67c.89,1.95.37,1.25,2.31,2.62,2.57.16,11.19-2.34,12.5-4.6Z"/>
      <path class="cls-6" d="M105.13,37.18c.98.97,1.26.99,1.66,2.21.44,1.46,1.15,4.08,1.81,5.34-2.51-1.2-13.6-3-16.33-2.86-4.22.22-5.76,1.16-10.84.16l-.48-.83c5.04-.68,15.73,1.49,18.92-1.63l-1.26-1.02c1.33-.32,6.37-1.3,6.54-1.36Z"/>
      <path class="cls-6" d="M78.44,35.14c.55-.84,1.44-1.94,2.07-2.77,1.2.68,3.64,2.05,4.95,2.13,2.92.18,14.65,1.14,16.06-2.06l1.52,1.61c-3.79,3.94-18.98,4.1-24.07,2.23l-.52-1.14Z"/>
      <path class="cls-6" d="M103.32,47.45c-3.57.49-22.02.39-25.6-.28,3.16-.82,23.92-.63,28.26-.53l-2.66.81Z"/>
      <path class="cls-4" d="M144.66,30.69c1.74.53,1.27.13,2.3,1.39l-7.37,10.67c8.17-.03,16.35-.03,24.52-.12,8.68-.1,18.56-.74,25.18,5.96,2.34,2.36,3.85,5.43,4.3,8.72,1.02,7.38.3,34.31.33,43.35.09,26.01-.22,52.42-.03,78.49.13,18.51-7.63,36.14-20.92,49.03-15.95,15.48-33.48,18.67-54.06,24.85-6.28,1.89-15.97,5.47-22.21,5.34-6.94-.14-17.01-4.04-23.95-6.12-21.12-6.34-37.83-9.52-53.73-26.24-8.07-8.45-13.79-18.85-16.6-30.18C-.25,185.05.06,175.21.05,164.21.01,130.28.29,96.34,0,62.41c-.2-23.79,26.11-19.81,42.64-19.68-1.59-2.19-5.26-6.77-5.9-9.09l1.39-.57,10.35,13.91-.07,3.51c-2.31-3.37-4.42-4.81-8.71-4.34-17.22,1.88-35.99-5.73-35.82,18.81.22,31.8,0,62.17.02,93.79,0,11.26-.72,23.73,1.81,34.53,2.7,11.64,8.53,22.33,16.86,30.9,15.4,15.86,31.2,18.43,51.35,24.58,5.01,1.53,18.59,6.23,22.74,5.69,13.16-1.73,46.39-11.64,57.08-17.13,6.53-3.35,12.48-7.7,17.65-12.9,23.7-23.82,18.94-54.69,18.91-85.57l-.08-82.14c-.56-1.02-1.16-2.03-1.77-3.02-8.37-13.16-35.38-4.49-50.81-7.87l.4-.7-.75.3c.23-1.42.81-3.15,1.23-4.55,1.8-3.73,5.39-6.62,6.13-10.17Z"/>
      <path class="cls-10" d="M130.74,55.22c9.18,3.67,35.36-3.46,45.38,2.74,2.92,1.81,4,3.5,5.73,6.32.14,10.37.06,20.74-.26,31.11-.22-6.57.68-30.94-2.81-33.75-8.46-6.83-37.21-5.14-47.46-5.06l-4.81,7.17-70.05.02c-1.88-2.36-3.74-4.56-5.2-7.2-26.68-.17-40.86-5.53-38.24,26.13.21,2.5.45,9.37-.26,11.5-.68-6.23-.07-12.83-.61-18.86-2.4-26.79,21.64-18.23,39.93-19.62l4.82,6.51,68.8-.04,5.03-6.94Z"/>
      <path class="cls-4" d="M49.51,77.87c9.13-.78,23.76-.01,33.54-.17,12.17.44,24.98-.92,37.06.57,30.39,3.74,40.88,39.88,15.16,57.73,25.1,15.08,18.84,46.81,3.43,66.43-16.25,16.91-37.8,23.42-60.53,16.41-13.64-4.16-25.03-13.63-31.62-26.27-3.06-5.77-5.06-12.03-5.92-18.5-1.2-8.95-1.72-82.04.28-88.13,1.42-4.35,4.73-6.17,8.6-8.07Z"/>
      <path class="cls-1" d="M47.94,82.65c1.13-.89,3.16-2.45,4.68-2.51,21.71-.86,45.05-.93,66.73.24,3.33.18,7.92,1.9,10.53,3.3,2.17,1.3,3.86,2.27,5.84,3.87l2.99,3.16c2.05,2.47,2.61,3.29,4.18,6.1,2.32,4.57,5.57,18.4.65,20.87-3.01,1.51-19.91.13-23.41-.66-1.52,3.7-3.24,6.81-7.27,8.17-7.75,2.61-36.7,2.17-44.11,1.4l-1.77-.25c-1.38-2.03-.79-14.75-.83-18.47-7.21.2-14.41.32-21.62.36-.77-6.44-1.46-12.98-.45-19.42,1.28-3.18,1.45-3.76,3.86-6.14Z"/>
      <path class="cls-9" d="M74.86,95.26c8.95.12,26.58.77,35.07.12,2.52,1.3,4.48,2.17,6.64,4.05,4.43,5.86,4.62,10.3,3.57,17.59-1.52,3.7-3.24,6.81-7.27,8.17-7.75,2.61-36.7,2.17-44.11,1.4l-1.77-.25c-1.38-2.03-.79-14.75-.83-18.47-.22-7.34.39-11.45,8.71-12.6Z"/>
      <path class="cls-5" d="M66.15,107.86c-.22-7.34.39-11.45,8.71-12.6-9.92,10.38-4.12,19.02-6.11,31.32l-1.77-.25c-1.38-2.03-.79-14.75-.83-18.47Z"/>
      <path class="cls-1" d="M47.94,82.65c1.13-.89,3.16-2.45,4.68-2.51,21.71-.86,45.05-.93,66.73.24,3.33.18,7.92,1.9,10.53,3.3-4.22,4.69-23.17,3.15-29.79,3.35-17.77.53-35.49-1.09-53.26.71l-.34-.82c1.35-1.61,1.36-2.18,1.44-4.27Z"/>
      <path class="cls-6" d="M142.89,96.8c2.32,4.57,5.57,18.4.65,20.87-3.01,1.51-19.91.13-23.41-.66,1.05-7.29.87-11.73-3.57-17.59,8.27.46,16.56.22,24.78-.69l1.55-1.92Z"/>
      <path class="cls-7" d="M44.08,88.79c1.28-3.18,1.45-3.76,3.86-6.14-.08,2.08-.09,2.65-1.44,4.27l.34.82c17.77-1.8,35.49-.18,53.26-.71,6.62-.2,25.57,1.34,29.79-3.35,2.17,1.3,3.86,2.27,5.84,3.87l-.18,2c-7.04,1.65-88.19,1.5-90.74.07l-.72-.83Z"/>
      <path class="cls-7" d="M138.71,90.71c2.05,2.47,2.61,3.29,4.18,6.1l-1.55,1.92c-8.23.92-16.52,1.15-24.78.69-2.15-1.87-4.11-2.74-6.64-4.05,1.59.12,3.41.29,4.96-.04,8.01-1.73,17.2.81,23.83-4.62Z"/>
      <path class="cls-9" d="M66.18,151.24c10.72.08,21.48-.24,32.21-.14,8.54.08,15.97-.88,22.64,5.26,4.15,3.85,5.56,7.95,5.83,13.61.34,6.19-1.88,12.24-6.15,16.74-9.84,10.4-36.54,11.25-46.69,1.55-.46-.44-.91-.9-1.34-1.37-8.77-10.06-6.68-22.52-6.51-35.64Z"/>
      <path class="cls-5" d="M66.18,151.24c10.72.08,21.48-.24,32.21-.14,8.54.08,15.97-.88,22.64,5.26-12.96-4.06-36.88-2.53-51.49-2.4-.1,7.2-.43,14.37.32,21.57.61,5.81,4.24,7.42,2.83,11.36-8.77-10.06-6.68-22.52-6.51-35.64Z"/>
      <path class="cls-4" d="M301.62,115.85c27.54-17.08,19.98-48.91-12.92-49.38-17.66-.25-35.33-.17-52.99-.12-6.71,35.56-13.39,73.46-19.34,109.19l32.44.06c19.06.02,36.22,1.68,52.46-10.03,14.33-13.66,21.94-39.11.35-49.72ZM282.67,152.31c-8.46,3.43-28.29,2.39-38.35,2.32,1.66-7.27,3.21-17.68,4.54-25.19,9.07-.07,17.88-.04,26.93.21,15.74.43,19.71,14.1,6.88,22.66ZM287.37,106.04c-8.02,3.98-25.39,2.75-35,2.67,1.54-6.11,2.75-14.99,3.82-21.38,10.08-.09,26.41-1.86,34.95,3.5,6.33,3.97.25,11.75-3.77,15.2Z"/>
      <path class="cls-8" d="M378.7,123.28c.43-2.28,2.39-5.8,3.51-8.01l.99.35c-1.21,2.88-2.36,5.73-3.84,8.49l-.66-.82Z"/>
      <path class="cls-4" d="M461.85,97.56h-20.46s-4.58,10.45-4.58,10.45c-10.12-19.33-33.64-13.9-47.01-.93-2.74,2.66-4.53,5.38-6.61,8.53l-.99-.35c-1.12,2.21-3.08,5.73-3.51,8.01l.66.82c-8.19,20.41-7.39,54.1,23.26,53.31,10.02-.26,17.68-6.19,24.11-13.51,1.54,15.17,12.94,12.15,24.86,11.9-2.57-12.15.7-24.2,2.84-36.28,2.55-13.97,5.03-27.96,7.43-41.96ZM417.01,156.69c-24.25,6.76-24.33-31.35-1.44-41.06,10.16-.95,13.97,2.31,18.43,11.16-2.44,15.18-2.12,21.96-16.99,29.9Z"/>
      <path class="cls-4" d="M708.34,97.59l-20.57-.04c-1.45,3.3-3.01,7.1-4.54,10.31-6.11-10.96-13.11-12.98-25.33-12.01-11.72,2.44-20.47,7.78-26.92,17.8-7.16,11.14-12.06,30.5-8.72,43.54,6.72,26.23,35.51,25.06,50.7,6.85.38,2.11.82,5.27,1.52,7.18,6.05,6.58,15.04,4.69,23.47,4.55-2.46-12.39.86-24.79,3.05-37.1l7.34-41.08ZM663.44,156.71c-24.6,6.61-24.01-31.79-1.43-41.07,10.12-.79,13.88,2.04,18.36,11.11-2.43,15.39-1.94,21.83-16.92,29.95Z"/>
      <path class="cls-4" d="M598.81,95.97c22.2.63,26.2,15.18,22.77,34.65-2.62,14.91-5.43,29.94-7.98,44.87-2.77.05-11.34.21-13.25-.25-24.72-6,20.52-66.74-18.52-58.39-5.41,1.16-11.31,5.81-14.99,10-2.36,15.99-5.61,32.59-8.27,48.66l-23.37.03c2.83-22.78,9.34-54.96,13.61-77.98,11.69-.14,20.55-2.62,21.38,11.84,8.56-8.72,16.71-12.4,28.63-13.42Z"/>
      <path class="cls-4" d="M466.09,97.53c7.42-.08,19.94-2.39,21.43,9.23,1.3,10.13-11.7,41.16-3.03,48.12,8.01,6.43,20.26-1.48,26.02-8.41,2.55-16.34,5.89-32.52,8.28-48.93l23.58.03c-1.71,10.31-3.53,20.61-5.46,30.89-2.16,15.03-7.93,33.26-4.72,47.33-12.04.16-23.78,3.3-24.97-12.09-8.09,8.25-14.75,12.37-26.15,13.08-21.86,1.37-25.98-15.51-22.96-33.53,2.56-15.28,5.33-30.55,7.98-45.72Z"/>
      <path class="cls-4" d="M345.66,110.1c12.84-15.45,44.7-23.79,36.55,5.16-1.12,2.21-3.08,5.73-3.51,8.01-1.44.24-3.91-1.88-5.53-2.64-11.71-5.47-22.06-1.14-30.82,7.01-2.28,15.41-5.67,32.36-8.34,47.87l-23.37.04c4.4-26.03,8.95-52.04,13.63-78.02,12.32-.13,20.21-2.35,21.39,12.56Z"/>
      <path class="cls-4" d="M468.04,74.17c24.64-.03,49.47-.22,74.09.05-.97,6.33-2.09,12.63-3.38,18.9h-73.99c1.3-6.54,2.34-12.34,3.28-18.95Z"/>
      <path class="cls-4" d="M677.06,196.66c-21.09,8.64-18.92,33.59,3.19,30.72,20.4-7.8,20.3-32.94-3.19-30.72ZM679.63,221.23c-13.84.89-12.52-12.36-1.75-18.45,13.54-.57,12.62,12.55,1.75,18.45Z"/>
      <path class="cls-4" d="M600.61,196.83c-3.07-.02-6.13,0-9.2.03-2.2,9.83-3.51,20.15-5.45,30.1,7.56.07,16.2.97,22.68-2.93,12.27-11.24,11.71-27.03-8.03-27.2ZM605.19,219.09c-15.55,6.53-9.91-6.1-8.15-15.79,12.43-.25,17.11,5.87,8.15,15.79Z"/>
      <path class="cls-4" d="M534.79,196.88h-8.31c-3.38,6.22-13.01,23.14-15.1,28.88l.48.7c2.29.28,3.63.65,5.81-.07,1.88-2.7,1.76-4.64,5.39-4.44,2.59-.11,5.74-.56,7.89.63.64,1.47,1.05,3.53,2.31,3.82,1.88.43,4.47.44,6.22-.38.11-3.76-3.83-24-4.7-29.13ZM529.88,215.24c-.72.95-2.3,1.21-3.45,1.59-.67-.4-1.45-.97-2.11-1.42.06-3.09,2.63-7.18,4.1-10.11,1.73,1.38,2.98,7.93,1.46,9.94Z"/>
      <path class="cls-4" d="M254.53,196.87l-8.22.04c-2.49,4.71-14.39,26.39-15.14,29.66l.63.99c5.32-.37,6.1-3.01,9.39-5.6l1.79-.02c2.57-.1,5.75-.55,7.89.62,1.57,4.07,3.96,5.64,8.49,3.48.35-4.31-3.74-23.7-4.82-29.16ZM249.78,215.11c-.86,1.22-2.05,1.27-3.46,1.74-1.27-.65-1.36-.59-2.14-1.84.22-3.15,2.65-6.81,4.25-9.67,1.66,1.38,2.76,7.79,1.35,9.77Z"/>
      <path class="cls-4" d="M388.89,196.76l-8.2.15c-2.98,5.43-14.69,25.2-14.39,30.04l.87.5c3.95-1.45,5.13-1.99,7.89-5.28l2.47-.21c2.24-.04,6.09-.34,7.99.47,1.38,2.54,1.79,3.61,4.12,5.32,1.99.33,3.15.43,4.37-1.7-1.19-8.58-3.45-20.69-5.12-29.28ZM384.48,214.51c-1.69,2-1.46,1.42-4.62,2.03-1.03-.52-.95-.54-1.65-1.47.6-3.06,3.01-6.93,4.56-9.77,1.57,2.24,2.69,6.53,1.72,9.21Z"/>
      <path class="cls-4" d="M453.37,196.74c9.39-.85,11.69-.57,17.67,6.77-1.58,1.2-2.84,1.96-4.52,2.97-4.1.57-7.06-5.43-12.09-3.38-2.36.75-6.01,3.24-6.89,5.81-3.55,10.33,3.54,14.91,12.52,10.45.9-.8,1.83-1.49,2.78-2.23,2.45.21,2.9,1.33,5.12,3.28-5.22,5.15-11.82,9.16-19.41,6.73-3.33-1.04-6.12-3.36-7.72-6.46-5.51-10.78,3.38-19.64,12.53-23.94Z"/>
      <path class="cls-4" d="M305.16,196.87c6.07.04,18.53-.49,23.77.35l.69,1.21c-.16,2.1-.1,2.6-1.31,4.29-2.1,1.21-5.94.73-8.51.63l-2.36,14.54c-.37,2.47-.77,7.46-2.61,8.98-2.21.06-3.31.19-5.46-.5-.22-2.82,2.92-19.08,3.6-23.02-2.38.07-5.98.5-7.9-.58-.94-2.49-.39-2.88.08-5.91Z"/>
    </g>
  </g>
</svg>