<svg width="17" height="15" viewBox="0 0 17 15" fill="none" xmlns="http://www.w3.org/2000/svg">
<path d="M12.95 5.36305C14.07 7.31305 13.32 10.093 11.19 11.323C9.06002 12.553 6.27001 11.8231 5.15001 9.87306L4.58001 8.89305C4.40001 8.57305 4.51001 8.16306 4.83001 7.97306L11.47 4.14305C11.79 3.95305 12.2 4.06307 12.39 4.38307L12.96 5.36305H12.95ZM12.94 0.163065L9.33001 2.25306C8.37001 2.81306 7.3 1.90304 6.14 2.57304C4.77 3.36304 5.40001 4.52304 4.27001 5.17304L0.660024 7.26304C0.0300239 7.63304 -0.189987 8.44305 0.180013 9.08305C0.470013 9.58305 1.03003 9.82306 1.57003 9.72306C1.84003 9.67306 2.12003 9.78305 2.26003 10.0231L2.92003 11.173C4.59003 14.063 8.37001 15.3231 11.52 14.1531C11.69 14.0931 11.87 14.0831 12.03 14.1531C12.27 14.2631 12.56 14.263 12.81 14.113C13.06 13.973 13.21 13.723 13.23 13.453C13.25 13.273 13.34 13.123 13.48 13.013C16.08 10.863 16.88 6.96304 15.21 4.07304L14.56 2.95304C14.42 2.71304 14.44 2.40306 14.63 2.19306C14.98 1.77306 15.06 1.16307 14.77 0.663065C14.41 0.0330652 13.6 -0.186956 12.96 0.173044" fill="#412884"/>
</svg>
